<svg xmlns="http://www.w3.org/2000/svg" viewBox="0 0 500 500"><g id="freepik--Floor--inject-12"><path id="freepik--floor--inject-12" d="M92.27,268.67C5.17,319,5.17,400.5,92.28,450.79s228.34,50.29,315.45,0,87.1-131.83,0-182.12S179.38,218.38,92.27,268.67Z" style="fill:#f5f5f5"></path></g><g id="freepik--Plants--inject-12"><g id="freepik--plants--inject-12"><path d="M41.15,393.16a.36.36,0,0,1-.15-.27c-1.36-14.8-13.95-25.5-19.33-30.07-.87-.74-1.56-1.33-2-1.76a7.24,7.24,0,0,1-2.28-6.76,6.26,6.26,0,0,1,4.37-4.45C27.38,348,36.19,355,41.82,365.69c7.88,15,4.18,26.08,4.14,26.19a.36.36,0,0,1-.25.24l-4.26,1.09a.32.32,0,0,1-.14,0A.44.44,0,0,1,41.15,393.16Zm0-27.13c-5.47-10.4-13.89-17.2-19.18-15.48a5.48,5.48,0,0,0-3.89,3.92,6.53,6.53,0,0,0,2.09,6.07c.42.41,1.1,1,2,1.72,5.39,4.58,18,15.26,19.54,30.13l3.64-.93C45.76,390,48.34,379.69,41.17,366Z" style="fill:#9333EA"></path><path d="M43.72,392.6h.05a.36.36,0,0,0,.38-.36c.31-17.28-11.65-33.93-19.7-37.36a.37.37,0,0,0-.29.68c8,3.39,19.55,20.28,19.25,36.67A.38.38,0,0,0,43.72,392.6Z" style="fill:#9333EA"></path><path d="M45.56,392.13h.16l2.89-.88a.36.36,0,0,0,.24-.24c0-.16,5.14-16.67,1.39-38.92-1.91-11.33-8.51-22.38-15.71-26.28a11.09,11.09,0,0,0-10.1-.69,5.52,5.52,0,0,0-3.41,3.5c-1.19,4.21,3.18,10.47,7.8,17.1,3.24,4.64,6.59,9.44,8.11,13.68a.37.37,0,1,0,.69-.25c-1.55-4.33-4.93-9.17-8.19-13.85-4.53-6.48-8.8-12.61-7.7-16.48a4.77,4.77,0,0,1,3-3,10.38,10.38,0,0,1,9.45.67c7,3.8,13.46,14.63,15.34,25.76C53,373,48.75,388.73,48.2,390.6l-2.69.81a.39.39,0,0,0-.25.46A.39.39,0,0,0,45.56,392.13Z" style="fill:#9333EA"></path><path d="M46.27,381.61h0a.37.37,0,0,0,.4-.33c2.17-26.74-12.74-48.14-17.16-51.82a.36.36,0,0,0-.51.05.37.37,0,0,0,0,.52c4.35,3.62,19,24.74,16.89,51.19A.38.38,0,0,0,46.27,381.61Z" style="fill:#9333EA"></path></g></g><g id="freepik--Shadows--inject-12"><path id="freepik--Shadow--inject-12" d="M350.53,378.87,439,430a8.27,8.27,0,0,0,7.42-.31l18.28-10.56c2.2-1.27,2.44-3.19.54-4.29l-88.47-51.07c-1.9-1.1-5.22-1-7.42.3l-18.28,10.57C348.87,375.85,348.63,377.77,350.53,378.87Z" style="fill:#e0e0e0"></path><ellipse id="freepik--shadow--inject-12" cx="199.02" cy="343.63" rx="49.9" ry="28.81" style="fill:#e0e0e0"></ellipse><ellipse id="freepik--shadow--inject-12" cx="326.66" cy="314.53" rx="49.9" ry="28.81" style="fill:#e0e0e0"></ellipse><ellipse id="freepik--shadow--inject-12" cx="381.3" cy="414" rx="49.9" ry="28.81" style="fill:#e0e0e0"></ellipse><ellipse id="freepik--shadow--inject-12" cx="82.48" cy="401.89" rx="49.9" ry="28.81" style="fill:#e0e0e0"></ellipse></g><g id="freepik--speech-bubble-3--inject-12"><g id="freepik--speech-bubble--inject-12"><path d="M381.3,134.68c0,16.35,18.5,29.61,41.33,29.61S464,151,464,134.68s-18.5-29.6-41.32-29.6c-1.38,0-2.73,0-4.07.14-4.51-8.48-12.19-9.94-18.16-9.26a11.19,11.19,0,0,1,6.38,11.38C391.82,111.79,381.3,122.35,381.3,134.68Z" style="fill:#fff"></path><path d="M402.91,95.38a17.28,17.28,0,0,1,15.9,9.39c1.28-.08,2.57-.13,3.82-.13,23,0,41.75,13.48,41.75,30s-18.73,30-41.75,30-41.76-13.48-41.76-30c0-12.12,10-23,25.5-27.67a10.78,10.78,0,0,0-6.15-10.66.43.43,0,0,1,.13-.82A21.93,21.93,0,0,1,402.91,95.38Zm15.65,10.27a.43.43,0,0,1-.38-.23c-4.35-8.17-11.56-9.37-16.29-9.15a11.73,11.73,0,0,1,5.32,11.11.44.44,0,0,1-.31.37c-15.29,4.55-25.17,15.12-25.17,26.93,0,16.09,18.35,29.18,40.9,29.18s40.89-13.09,40.89-29.18-18.34-29.17-40.89-29.17c-1.32,0-2.68,0-4,.14Z" style="fill:#37474f"></path><path d="M436.45,133.84a4.2,4.2,0,1,1,4.2,4.2A4.2,4.2,0,0,1,436.45,133.84Z" style="fill:#455a64"></path><path d="M418.42,133.84a4.21,4.21,0,1,1,4.21,4.2A4.21,4.21,0,0,1,418.42,133.84Z" style="fill:#455a64"></path><path d="M400.4,133.84a4.21,4.21,0,1,1,4.2,4.2A4.2,4.2,0,0,1,400.4,133.84Z" style="fill:#455a64"></path></g></g><g id="freepik--speech-bubble-2--inject-12"><g id="freepik--speech-bubble--inject-12"><path d="M109.1,156.21a1.68,1.68,0,0,1-.53-.47L95.18,137.3l25.94-15,11.79,6.81-9.68,32.92a1.62,1.62,0,0,1-2.36.95C120.68,162.89,110,156.68,109.1,156.21Z" style="fill:#37474f"></path><path d="M107,144.11l13.39,18.43a1.62,1.62,0,0,0,2.87-.49l9.68-32.92Z" style="fill:#263238"></path><path d="M74.56,166.91l-11.48-6.63a5.55,5.55,0,0,1-2.52-4.35V82.76a5.55,5.55,0,0,1,2.52-4.35L138.23,35a5.57,5.57,0,0,1,5,0l11.48,6.63A5.54,5.54,0,0,1,157.25,46v73.17a5.54,5.54,0,0,1-2.51,4.35L79.59,166.91A5.57,5.57,0,0,1,74.56,166.91Z" style="fill:#455a64"></path><path d="M81.79,92.12,61.3,80.29a5.07,5.07,0,0,0-.74,2.47v73.17a5.55,5.55,0,0,0,2.52,4.35l11.48,6.63a5.57,5.57,0,0,0,5,0l2.2-1.27Z" style="fill:#37474f"></path><path d="M77.07,92.3v73.16c0,1.6,1.13,2.25,2.52,1.45l75.15-43.39a5.54,5.54,0,0,0,2.51-4.35V46c0-1.6-1.12-2.25-2.51-1.45L79.58,87.94A5.57,5.57,0,0,0,77.07,92.3Z" style="fill:#263238"></path><path d="M79.58,87.94l75.16-43.39c1.39-.8,2.51-.15,2.51,1.45v73.17a5.54,5.54,0,0,1-2.51,4.35l-24.31,14-7.2,24.5a1.62,1.62,0,0,1-2.87.49L110.55,149l-31,17.88c-1.39.8-2.52.15-2.52-1.45V92.3A5.57,5.57,0,0,1,79.58,87.94Z" style="fill:#fff"></path><path d="M155.07,46.87v72.3a3.43,3.43,0,0,1-1.43,2.47l-24.31,14-.75.43-.25.84-6.88,23.41-9.15-12.59-1.15-1.59-1.7,1L79.25,164.59V92.3a3.4,3.4,0,0,1,1.42-2.47l74.4-43m.79-2.66a2.28,2.28,0,0,0-1.12.34L79.58,87.94a5.57,5.57,0,0,0-2.51,4.36v73.16c0,1.14.57,1.8,1.39,1.8a2.36,2.36,0,0,0,1.13-.35l31-17.88,9.81,13.51a1.58,1.58,0,0,0,1.31.67,1.61,1.61,0,0,0,1.56-1.16l7.2-24.5,24.31-14a5.54,5.54,0,0,0,2.51-4.35V46c0-1.13-.56-1.79-1.39-1.79Z" style="fill:#263238"></path></g></g><g id="freepik--speech-bubble-1--inject-12"><g id="freepik--speech-bubble--inject-12"><path d="M216.72,63.05c0-16.35,18.5-29.61,41.32-29.61s41.33,13.26,41.33,29.61-18.5,29.6-41.33,29.6c-1.37,0-2.73-.05-4.07-.14-4.51,8.48-12.18,9.94-18.15,9.26a11.19,11.19,0,0,0,6.37-11.38C227.24,85.94,216.72,75.38,216.72,63.05Z" style="fill:#fff"></path><path d="M235.77,102.2a.44.44,0,0,1-.38-.36.43.43,0,0,1,.25-.46,10.78,10.78,0,0,0,6.15-10.66c-15.5-4.71-25.5-15.55-25.5-27.67,0-16.56,18.73-30,41.75-30s41.76,13.48,41.76,30-18.73,30-41.76,30c-1.25,0-2.53,0-3.82-.13a17.26,17.26,0,0,1-15.89,9.39A21.8,21.8,0,0,1,235.77,102.2ZM254,92.08c1.37.1,2.72.14,4,.14,22.55,0,40.9-13.08,40.9-29.17S280.59,33.87,258,33.87,217.15,47,217.15,63.05c0,11.81,9.88,22.38,25.17,26.93a.42.42,0,0,1,.3.37,11.75,11.75,0,0,1-5.31,11.11c4.73.22,11.94-1,16.28-9.15a.45.45,0,0,1,.38-.23Z" style="fill:#9333EA"></path><path d="M271.86,63.89a4.21,4.21,0,1,0,4.21-4.2A4.21,4.21,0,0,0,271.86,63.89Z" style="fill:#9333EA"></path><path d="M253.84,63.89a4.21,4.21,0,1,0,4.2-4.2A4.2,4.2,0,0,0,253.84,63.89Z" style="fill:#9333EA"></path><path d="M235.82,63.89a4.2,4.2,0,1,0,4.2-4.2A4.2,4.2,0,0,0,235.82,63.89Z" style="fill:#9333EA"></path><g style="opacity:0.30000000000000004"><path d="M271.86,63.89a4.21,4.21,0,1,0,4.21-4.2A4.21,4.21,0,0,0,271.86,63.89Z" style="fill:#fff"></path><path d="M253.84,63.89a4.21,4.21,0,1,0,4.2-4.2A4.2,4.2,0,0,0,253.84,63.89Z" style="fill:#fff"></path><path d="M235.82,63.89a4.2,4.2,0,1,0,4.2-4.2A4.2,4.2,0,0,0,235.82,63.89Z" style="fill:#fff"></path></g></g></g><g id="freepik--character-3--inject-12"><g id="freepik--Character--inject-12"><g id="freepik--Arm--inject-12"><path d="M313.24,112.35c-5.93,1-8,2.19-12.88,7.94-3.67,4.31-13.18,16.87-13.18,16.87s-3.13,16.45.46,16.71a7.92,7.92,0,0,0,5.66-1.78c5.48-4.69,15-15.62,15-15.62Z" style="fill:#c8856a"></path><path d="M287.75,136.4c2.05,2.1,4.64,11.81,4.64,11.81a13.16,13.16,0,0,0,.4-7.66,19.58,19.58,0,0,0-3.34-6.38Z" style="fill:#af6152"></path><path d="M255.72,122.73c-.63-1.36-2.67-.9-3.62-1.84a1.06,1.06,0,0,1,.43-1.8,6.84,6.84,0,0,1,2.63,0,7.25,7.25,0,0,0,2.93-.63c2-.8,4.4-1.36,6.25.06a6.71,6.71,0,0,0-1.35.66C260.56,120.35,258.13,121.53,255.72,122.73Z" style="fill:#af6152"></path><path d="M247.93,121.9l.73.35.94.46a3.75,3.75,0,0,1,.44.24c.07,0,.36.31.42.29a7.63,7.63,0,0,1,3-.38c1.27.21,1.53.46,3.29-.79,1.18-.84,2.62-2.37,4.18-3.09s3.15-1.13,4.79.39,2.46,2.55,4.21,4A111.51,111.51,0,0,0,279,130.1c5,3.53,9.22,5.69,12.3,10.87,1.24,2.09,3.57,9.74,2,11.12-2.23,1.95-7.47,3.35-12.72-1.47a74.88,74.88,0,0,1-6.76-7c-2.13-2.45-3-3.72-6.05-7.28s-4.78-5.38-6.57-6.43c-1.53-.9-3.58-.75-5-.69a13.62,13.62,0,0,1-5.34-.64c-1.77-.46-2.9-1-4.11-1.34a15.17,15.17,0,0,1-3.36-2l-2-1.21a1.67,1.67,0,0,1-.58-.47c-.07-.13.08-.42.13-.57a1.07,1.07,0,0,1,.27-.36,2.85,2.85,0,0,1-.75-.19,6.17,6.17,0,0,0-.65-.19c-.16,0-.34-.14-.34-.31a.42.42,0,0,1,.12-.27,2.06,2.06,0,0,1,1.06-.65,6.37,6.37,0,0,1,1.69,0,.53.53,0,0,0,.25,0,1.16,1.16,0,0,0,.27-.18,1.33,1.33,0,0,1,1-.16,16.55,16.55,0,0,1,1.77.57c.36.11.73.16,1.09.26A7.34,7.34,0,0,1,247.93,121.9Z" style="fill:#c8856a"></path><path d="M252.1,123.89a3.77,3.77,0,0,0,1.7-.17,5.4,5.4,0,0,0,1.31-.67,4.14,4.14,0,0,0,1.33-.59c.91-.63,1.9-1.52,2.93-2.3a5,5,0,0,1,2.88-.23,5.7,5.7,0,0,1,1.37.58,13.9,13.9,0,0,1,1.27,1.09,4.32,4.32,0,0,0-1-1.26,4.27,4.27,0,0,0-1.46-.77,4,4,0,0,0-2.87.47c1.94-1.44,4-2.45,6.19-.67-1.58-1.78-4.09-1.15-5.86,0s-3.07,2.94-5.06,3.41a7.91,7.91,0,0,1-1.51-.18,7.69,7.69,0,0,0-2.81.43l-.13-.1a12.49,12.49,0,0,0-4.41-1.76c-1-.16-2.09-1-3-.36,1-.5,2,.28,3,.51a12.74,12.74,0,0,1,4.36,1.92.51.51,0,0,0,.32.1,7.25,7.25,0,0,1,2.59-.42,11.8,11.8,0,0,0,1.58.19l-.22.08-.79.28A12,12,0,0,1,252.1,123.89Zm-3.93.51a1.55,1.55,0,0,1-.61,0,1.6,1.6,0,0,1-.4-.23,3.71,3.71,0,0,0-1.88-.58,1.44,1.44,0,0,1-.46,0,2.06,2.06,0,0,1-.41-.23,4.8,4.8,0,0,0-1.61-.59,2,2,0,0,0-.43-.07.66.66,0,0,0-.24,0,4.38,4.38,0,0,1,1.42.37,8.11,8.11,0,0,1,1.15.75l.06,0h.09a5.67,5.67,0,0,1,.7.06,5.78,5.78,0,0,1,.69.17,4.23,4.23,0,0,1,1.26.62l.12.09.09,0a4.28,4.28,0,0,1,.54-.12,3.43,3.43,0,0,1,.56-.05h.57l.58.09A2.84,2.84,0,0,0,248.17,124.4Zm-5.12-3.24c-.11,0-.24,0-.34-.06a5.64,5.64,0,0,1,1,.53,1.51,1.51,0,0,0,.22.11l.24.07a5.73,5.73,0,0,1,1.22.37,3.81,3.81,0,0,1,1.09.82l.09.1.14,0a3.45,3.45,0,0,1,.75-.13,5.08,5.08,0,0,1,.78,0,7.22,7.22,0,0,1,.8.08,7.55,7.55,0,0,1,.8.16,4.53,4.53,0,0,0-2-.44c-.22,0-.44,0-.66.05s-.42.09-.56,0l-.06-.06a2.38,2.38,0,0,0-1.18-.81c-.44-.14-.91-.14-1.34-.31-.22-.08-.41-.2-.62-.3A3.4,3.4,0,0,0,243.05,121.16Z" style="fill:#af6152"></path></g><g id="freepik--Bottom--inject-12"><path d="M318.15,292.21l1.31-13.14-16.29-1.57s.74,10.37.69,15.12c0,2.24-1.57,6.47-1.57,6.47s6.45,3.27,9.76,1.88,5.47-6.66,5.38-7.62Z" style="fill:#c8856a"></path><path d="M283.8,315.17c-.22,0-.31,2.11,1,3.09a16.22,16.22,0,0,0,11.63,2.2c5.47-1,8.36-2.85,10.45-4.79s5-4.67,7.5-5.35a17.82,17.82,0,0,0,6-3.4c.7-.74.41-3.87.41-3.87Z" style="fill:#263238"></path><path d="M318.27,291s.3.14.49.86.55,3.35,1,4.75a24.94,24.94,0,0,1,1,7.57c-.21,1.62-4.49,3.8-6.85,4.84a30.56,30.56,0,0,0-7.52,5.29c-2.47,2.24-7.78,4.73-11.38,4.91-4.24.2-9.11-.89-10.32-2.76-1.49-2.33-2.64-5.06,3.49-8.28,1.16-.61,5.2-3.29,6.58-4.25,3.72-2.61,6.3-4.95,7.83-9.29a2.41,2.41,0,0,1,.83-1.34,2,2,0,0,1,1.22-.18,41.87,41.87,0,0,1,6.26.82c.87.35,2.09.74,2.14,1.81a3.66,3.66,0,0,1-.18,1.09c-.06.23-.1.52.1.64s.42,0,.58-.2a17.2,17.2,0,0,0,1.58-2.1,17.24,17.24,0,0,1,1.51-1.9,10.24,10.24,0,0,0,1-.75A2.44,2.44,0,0,0,318.27,291Z" style="fill:#455a64"></path><path d="M306.37,314.26a42.22,42.22,0,0,1,3.28-2.72h0s-7.14,4.84-10.25,3c-2-1.19-1.18-2.82-1.17-3.32s-7-3.68-8.88-3.8h0c-.5.31-.92.58-1.19.71-4.81,2.21-5.32,4.74-4.31,7.83,1.2,1.88,5.59,3.64,11.08,3.34C298.52,319.1,303.9,316.5,306.37,314.26Z" style="fill:#37474f"></path><path d="M298.67,309.72c-3.83,1.76-2.12,2.39-1,2.48s7.47-4.06,11.31-7.42c4-3.5,7-8.06,8.5-9.35.55-.48,1.15-1.06,1.67-1.61-.15-.84-.28-1.61-.38-2-.19-.72-.49-.86-.49-.86a4.73,4.73,0,0,1-.62,1.53,10.24,10.24,0,0,1-1,.75,17.24,17.24,0,0,0-1.51,1.9,17.2,17.2,0,0,1-1.58,2.1C310.35,301.7,302.49,308,298.67,309.72Z" style="fill:#37474f"></path><path d="M297.9,311.62a.4.4,0,0,0,.24-.1.38.38,0,0,0,0-.54c-1.19-1.27-6.61-4.14-9.47-3.67a.38.38,0,0,0-.32.44.37.37,0,0,0,.44.31c2.68-.43,7.84,2.43,8.78,3.43A.39.39,0,0,0,297.9,311.62Z" style="fill:#263238"></path><path d="M301.2,309.36a.43.43,0,0,0,.24-.1.37.37,0,0,0,0-.54c-1.18-1.27-6.6-4.14-9.47-3.67a.39.39,0,0,0-.32.44.38.38,0,0,0,.45.31c2.67-.43,7.83,2.43,8.77,3.43A.42.42,0,0,0,301.2,309.36Z" style="fill:#263238"></path><path d="M304.5,307.21a.43.43,0,0,0,.24-.1.37.37,0,0,0,0-.54c-1.18-1.27-6.6-4.15-9.47-3.67a.39.39,0,0,0-.32.44.38.38,0,0,0,.45.31c2.68-.43,7.83,2.43,8.77,3.43A.42.42,0,0,0,304.5,307.21Z" style="fill:#263238"></path><path d="M307.53,304.79a.39.39,0,0,0,.25-.1.39.39,0,0,0,0-.54c-1.18-1.27-6.62-4.14-9.47-3.67a.39.39,0,1,0,.13.76c2.67-.43,7.83,2.42,8.77,3.43A.35.35,0,0,0,307.53,304.79Z" style="fill:#263238"></path><path d="M310.51,302.38a.37.37,0,0,0,.23-.1.38.38,0,0,0,0-.54c-1.63-1.8-7.27-4.13-10.13-3.66a.38.38,0,0,0-.32.43.4.4,0,0,0,.45.32c2.57-.42,8,1.82,9.42,3.42A.39.39,0,0,0,310.51,302.38Z" style="fill:#263238"></path><path d="M346.05,299.57l-3.48-16.2,16-2.28.09,16s1.18,4.31.26,5.77-10.5,2.89-11.37,1.9S346.05,299.57,346.05,299.57Z" style="fill:#c8856a"></path><path d="M347.38,325.05c.39,3.63,1.12,6,2.67,8s4.34,2.35,7.11,1.42,6.3-3,7-6.25a17.75,17.75,0,0,0-.34-8.7Z" style="fill:#263238"></path><path d="M358.62,297c1.16,0,.82,2.81,1.31,7.7.54,5.29,2.88,9.46,3.69,13.71.92,4.86.71,7.09-1.13,10.29s-8.63,6.88-12.2,3c-2.92-3.18-3.18-7-3.12-12a113.14,113.14,0,0,0-.23-12.57c-.37-3.67-1.88-7.07-.89-7.6.1.54,1,4.26,1.69,4.21a7.16,7.16,0,0,0,0-1.39,1.55,1.55,0,0,1,.27-1.23,5.32,5.32,0,0,1,1.86-.92c1.13-.32,3.14-.72,4.29-.93.57-.11,1.15-.2,1.73-.26a5.16,5.16,0,0,1,1.47,0,.9.9,0,0,1,.64.43,1.49,1.49,0,0,1,.08.56,3.69,3.69,0,0,0,.19,1c0,.14.16.31.33.26a.31.31,0,0,0,.17-.32C358.72,300.4,358.66,297.36,358.62,297Z" style="fill:#455a64"></path><path d="M363.3,317.08c.14.7,1,5.33-.41,6.34s-2.54-2.52-2.54-2.52-3.72-.59-9,2.07c.3.73-.43,3.34-1.92,3s-2.26-5.71-2.27-5.78c0,4.75.29,8.47,3.12,11.56,3.57,3.9,10.37.22,12.2-3s2.05-5.43,1.13-10.29C363.53,318,363.42,317.51,363.3,317.08Z" style="fill:#37474f"></path><path d="M359.94,321.27c.1,1.78,2.06,1,2.05-1.57s-1.28-8.68-1.74-12.82c-.27-5.95-.47-9.88-1.63-9.84,0,.06,0,.12,0,.18s.08,3.39.09,3.78c.17,3.63.15,10.69.64,14A50.71,50.71,0,0,1,359.94,321.27Z" style="fill:#37474f"></path><path d="M352,322.85a49.17,49.17,0,0,1-1.35-6.14c-.52-3.25-2.4-9.77-3.33-13.28-.31-.58-1.25-3.86-1.25-3.86-.8.22,0,3.34.32,4.81s.81,3,1.25,5.12c1.16,4.14,1.21,10.32,2,12.71S352.42,324.56,352,322.85Z" style="fill:#37474f"></path><path d="M351.25,323.13a.47.47,0,0,0,.15-.06,15.73,15.73,0,0,1,8.85-1.79.48.48,0,0,0,.52-.33.34.34,0,0,0-.32-.42,16.51,16.51,0,0,0-9.47,1.91.37.37,0,0,0-.16.53A.43.43,0,0,0,351.25,323.13Z" style="fill:#263238"></path><path d="M350.13,319.36l.15-.05a19.6,19.6,0,0,1,9.91-2,.47.47,0,0,0,.5-.34.36.36,0,0,0-.34-.42,20.17,20.17,0,0,0-10.47,2.12.37.37,0,0,0-.18.52A.41.41,0,0,0,350.13,319.36Z" style="fill:#263238"></path><path d="M359.76,313.67a.5.5,0,0,0,.36-.3.35.35,0,0,0-.29-.45c-5.23-1-10.25,1.9-10.46,2a.37.37,0,0,0-.16.53.44.44,0,0,0,.58.09s4.93-2.82,9.79-1.9Z" style="fill:#263238"></path><path d="M359.33,310.23a.45.45,0,0,0,.35-.29.34.34,0,0,0-.28-.45,15.31,15.31,0,0,0-10.67,2,.37.37,0,0,0-.12.53.44.44,0,0,0,.59.07,14.56,14.56,0,0,1,9.94-1.88Z" style="fill:#263238"></path><path d="M358.83,306.38a.51.51,0,0,0,.35-.29.35.35,0,0,0-.27-.46c-5.4-1.18-10.53,2-10.75,2.14a.36.36,0,0,0-.13.53.43.43,0,0,0,.59.07c.05,0,5-3.1,10-2A.46.46,0,0,0,358.83,306.38Z" style="fill:#263238"></path><path d="M348.9,156.82c2.09,9.81,5.07,15.33,5.53,40.21s.39,31.86.49,34.86,1.84,8.37,3.38,23.15a252.84,252.84,0,0,1,.74,32s-2.08,2.79-7.73,3.29a13.09,13.09,0,0,1-8.39-1.83s-6.56-28.44-8.54-37.34S326.66,213,326.66,213l-3.41,23.74s1.59,8.16,0,21.12-4.11,26.08-4.11,26.08-2.2,1.82-8.29,1.47a20.72,20.72,0,0,1-7.55-1.83s-3.91-38.57-3.91-53.26,1.47-51.19,3.64-73.46Z" style="fill:#455a64"></path><path d="M306.72,178.3c2.21,6.06,10.28,10.31,13.82,11.16l4.16,23.18-1.45,24.06L326.66,213,322,184.71S312.18,184,306.72,178.3Zm33.61-3c.58,2.38,1.1,4.78,1.66,7.18s1.1,4.8,1.7,7.22a48.61,48.61,0,0,0-.5-7.44,73,73,0,0,0-1.34-7.32,65.94,65.94,0,0,0-2.13-7.15,34.43,34.43,0,0,0-3.19-6.75c.75,2.38,1.41,4.74,2,7.11S339.77,173,340.33,175.34Zm4.17-4.59c.8,1.43,1.56,2.89,2.33,4.35l2.26,4.45a20.38,20.38,0,0,0-1.14-4.94,32.92,32.92,0,0,0-2.07-4.61,38,38,0,0,0-2.74-4.25,26,26,0,0,0-3.36-3.77c.74,1.53,1.54,3,2.34,4.43S343.73,169.3,344.5,170.75Zm-3.69,67.09c-1.42-7.61-2.43-15.31-3.42-23s-1.94-15.42-3-23.12c.47,7.76,1,15.52,1.8,23.26s1.69,15.47,3.09,23.15,3,15.26,4.6,22.87,3.25,15.19,5,22.77q-1.77-11.53-3.83-23C343.72,253.1,342.27,245.44,340.81,237.84ZM305.45,212l1.27-20.27q-1.56,10-2.48,20.17c-.61,6.76-1.19,13.49-1.21,20.34.23,6.81.75,13.54,1.3,20.3s1.23,13.49,2,20.22q-.28-10.17-.81-20.3L305,242.3c-.17-3.37-.38-6.76-.45-10.11s.15-6.72.3-10.09S305.26,215.35,305.45,212Z" style="fill:#37474f"></path></g><g id="freepik--Top--inject-12"><path d="M352.77,121.52h0a14.19,14.19,0,0,1-14.19-14.19V71.92h2.35a11.84,11.84,0,0,1,11.84,11.84Z" style="fill:#37474f"></path><path d="M345.77,76.38a8.48,8.48,0,0,1,.38,1.8,4.74,4.74,0,0,1,0,1.19,4,4,0,0,1-3.89,3.22,6.06,6.06,0,0,1-4.68-2.51c-1.52-1.94-3.78-6.51-.83-8.13a6,6,0,0,1,6.26.51A7.75,7.75,0,0,1,345.77,76.38Z" style="fill:#9333EA"></path><path d="M345.77,76.38a8.48,8.48,0,0,1,.38,1.8,4.74,4.74,0,0,1,0,1.19,4,4,0,0,1-3.89,3.22,6.06,6.06,0,0,1-4.68-2.51c-1.52-1.94-3.78-6.51-.83-8.13a6,6,0,0,1,6.26.51A7.75,7.75,0,0,1,345.77,76.38Z" style="opacity:0.25"></path><path d="M353,173.3c-1.53-7.73-3.57-17.74-3.68-21.45-.25-7.79,1.61-13.69,2.27-18.06,1.42-9.51.37-17.92-1.84-19.79,0,0-6.45-1.49-8.57-1.87-1.67-.3-3-.5-5.17-1a31.06,31.06,0,0,0-11.36-.73c-1,.1-3.59.79-6.52,1.22l-4.93.76s-2.09,1.29-5.25,6.94c-2.41,4.31-3.67,5.13-4.66,14.86-1.36,13.47-1.33,31.32-1.84,38.5C311.22,178.64,340.46,180.63,353,173.3Z" style="fill:#37474f"></path><g id="freepik--Head--inject-12"><path d="M311.89,93.73l-1.16-.36c-5.21-2.79-5-9.59-3.68-13.13,2.82-7.91,11.37-10.87,16.66-11.16,10-.55,14.92,2,16,7.24,1.35-.12,3.22,1,4.35,2.51,2.46,3.36,4.29,13.41-8.71,25.74Z" style="fill:#37474f"></path><path d="M338.22,100.86a5.34,5.34,0,0,0,4.88-2.29c2-3,1.9-5.81.7-7.57a3.78,3.78,0,0,0-4.94-1.07c-1.67,1.14-1.59,2-1.71,3.4s-3.11,1.24-3.91-3.65c-.74-4.55-1-9-3.34-11-3.47-3-7.8-1.94-9.07-.06-1.45-2.09-4.36-2.23-6.59-.91-1.85,1.08-3.44,3.33-3.25,8.44a31.56,31.56,0,0,1-.34,3.65c-.89,10,1.29,13.77,3.81,15.91,1.45,1.24,3.59,2,6.92,2.06l-.12,3.91s-4.5,8.51-4.19,16.1c0,0,1.84-1.27,10.09-8.49,5.51-4.81,9-7.65,9-7.65l-.3-12.71A3.28,3.28,0,0,0,338.22,100.86Z" style="fill:#c8856a"></path><path d="M312.47,85.75l3.31-1.12a1.67,1.67,0,0,0-2.16-1.13A1.84,1.84,0,0,0,312.47,85.75Z" style="fill:#263238"></path><path d="M324.24,84.74l3.35,1.66a1.79,1.79,0,0,0-.78-2.49A2,2,0,0,0,324.24,84.74Z" style="fill:#263238"></path><path d="M326.3,89.05a1.43,1.43,0,1,1-1.43-1.43A1.43,1.43,0,0,1,326.3,89.05Z" style="fill:#263238"></path><path d="M316,88.8a1.43,1.43,0,1,1-1.43-1.43A1.43,1.43,0,0,1,316,88.8Z" style="fill:#263238"></path><path d="M329.1,79.28c.78,1,1.35,2.63,1.23,6.2a15,15,0,0,0,1.56,6.06c.87,1.81,1.77,2.89,3.7,3.23a7,7,0,0,0,3.48-.36c.68-.31,2.6-1.67,2.37-3.65a4.18,4.18,0,0,1-1.41,1,4.37,4.37,0,0,1-1.27.31,3.92,3.92,0,0,1-3.29-1.82c-1.29-1.92-1.21-4.51-1.6-6.71-.51-2.8-1-5.16-3.52-6.55-3-1.64-8.87-1.4-9.52,1.65A5.93,5.93,0,0,1,329.1,79.28Z" style="fill:#37474f"></path><polygon points="321 87.37 320.63 96.12 315.78 94.64 321 87.37" style="fill:#af6152"></polygon><path d="M324.27,98.44a2.34,2.34,0,0,0-1.14-.23,6.8,6.8,0,0,0-1.19.15,3.49,3.49,0,0,0-1.75.94.81.81,0,0,0-.22.3c-.05.25.18.24.35.17l.34-.18c.17-.08.36-.13.53-.21a5.09,5.09,0,0,1,1-.34,6,6,0,0,1,1-.14h.54c.19,0,.44,0,.55-.18A.23.23,0,0,0,324.27,98.44Z" style="fill:#af6152"></path><path d="M321.38,107.78a17.39,17.39,0,0,0,8.74-2c2.37-1.22,3-3.35,4.16-5.58,0,0-.4,4.64-3.28,6.91-4.06,3.2-9.67,2.66-9.67,2.66Z" style="fill:#af6152"></path></g><g id="freepik--Hand--inject-12"><path d="M349.78,114c6.13,1,8.19,2.92,10.73,9.56,2.45,6.42,8.12,20.87,6.44,30.57-1,5.92-16-8.95-16-8.95l-7.15-16.48S344.6,114,349.78,114Z" style="fill:#c8856a"></path><path d="M345.63,118.64a43.62,43.62,0,0,0-1.79,10.06L351,145.18s2.15,2.14,4.87,4.48L366,144.4c-.14-2.52-5.93-9.87-9.51-13.63C353.85,128,348.39,121.57,345.63,118.64Z" style="fill:#af6152"></path><path d="M348.07,122.13a18.71,18.71,0,0,1-3.36-6.53c-.69-2.77-2.87-5.32-3.62-6.37s-2.34-2.59-3.57-4.06-1.58-1.89-3.34-2.18c-2.42-.41-4.32-.79-5.27-.51s-.91.91-.09,1.75,2.55,1,3.09,1.21,1.72.67,1.72.67l2.24,3.3a32.2,32.2,0,0,0-4.54,1.11,3.64,3.64,0,0,0-1.06,3.39,2.06,2.06,0,0,0-.85,2.31s-.85,1.11-.26,2a14.55,14.55,0,0,0,2.26,2.51,6.13,6.13,0,0,0,2.29.5,16.88,16.88,0,0,0,2.86,3.33c1.3,1,2.16.9,3.59,2.92Z" style="fill:#c8856a"></path><path d="M334.16,109.75c-.9-.39-1.1-1-2-.67s-.52,1.29-.52,1.29Z" style="fill:#af6152"></path><path d="M330.3,114a8.57,8.57,0,0,1,1.84-1.2c.63-.3,1.92-.76,1.92-.76a9.26,9.26,0,0,0-2.63.63,6.65,6.65,0,0,0-1.24.62,2.07,2.07,0,0,0,.08.62Z" style="fill:#af6152"></path><path d="M330.18,115.27a7.92,7.92,0,0,0-.88.44,2.72,2.72,0,0,0,.15.61,7.65,7.65,0,0,1,2.39-1.48A7.84,7.84,0,0,0,330.18,115.27Z" style="fill:#af6152"></path><path d="M334.05,121.75a18.58,18.58,0,0,0-1.85-3,1.37,1.37,0,0,0-1.86-.17c-.24.36,1,.31,1.35.47A11.88,11.88,0,0,1,334.05,121.75Z" style="fill:#af6152"></path><path d="M336.91,109.31s-.7-1-1.94-2.54-1.17-1.33-2.38-1.57-3.5-.64-4.12-1.37a4,4,0,0,0,.35.4c.8.81,2.55,1,3.09,1.21s1.72.67,1.72.67l2.3,3.4Z" style="fill:#af6152"></path><path d="M348.07,122.13c4.06,4.9,15,16.67,17.53,21.36,1.75,3.24,2.19,10.77.41,13.51s-6.89,1.59-11-2c-3.57-3.13-6.54-10.67-9.13-16s-5.69-11.42-5.69-11.42Z" style="fill:#c8856a"></path><path d="M345.66,118.17a14.08,14.08,0,0,1-.79-2.17,12.51,12.51,0,0,0-.75-2.21,21.11,21.11,0,0,0-2.47-3.93,31.79,31.79,0,0,0-3-3.54c-.52-.57-1-1.16-1.51-1.76a4.07,4.07,0,0,0-1.86-1.41,18.61,18.61,0,0,0-2.29-.47c-.76-.13-1.53-.26-2.3-.35a7.71,7.71,0,0,0-1.18,0,2,2,0,0,0-1.15.37.65.65,0,0,0-.25.61,1.3,1.3,0,0,0,.24.58,2.84,2.84,0,0,0,.86.83,7.24,7.24,0,0,0,2.22.77,12.08,12.08,0,0,1,2.13.77l2.14,3.13c-1.33.26-2.65.52-3.95.91a2.75,2.75,0,0,0-.51.21,1.65,1.65,0,0,0-.4.39,4.11,4.11,0,0,0-.48,1,3.84,3.84,0,0,0-.17,2.07,2.63,2.63,0,0,0-.82,1,1.55,1.55,0,0,0-.14.67,1.73,1.73,0,0,0,.12.64,2,2,0,0,0-.34,1.9,9.15,9.15,0,0,0,1.23,1.58c.23.24.46.48.7.71a2.32,2.32,0,0,0,.81.6,8.45,8.45,0,0,0,1.94.31A21.49,21.49,0,0,0,335,123.1a9,9,0,0,0,1.63,1.58c.62.45,1.33.73,1.94,1.18a7.15,7.15,0,0,1,1.56,1.64,7.16,7.16,0,0,0-1.54-1.66c-.61-.46-1.31-.76-1.92-1.21a9.26,9.26,0,0,1-1.6-1.59c-.47-.58-.92-1.2-1.34-1.82l0,0h0a8.37,8.37,0,0,1-1.93-.32,2.17,2.17,0,0,1-.76-.57c-.23-.23-.46-.47-.68-.71a8.75,8.75,0,0,1-1.2-1.54,1.88,1.88,0,0,1,.35-1.78l0,0v0a1.62,1.62,0,0,1-.12-.61,1.65,1.65,0,0,1,.14-.62,2.38,2.38,0,0,1,.8-1l.05,0,0-.06a3.53,3.53,0,0,1,.18-2c.23-.64.56-1.31,1.27-1.44a39.73,39.73,0,0,1,4.09-.92l.16,0-.09-.14-2.23-3.3,0,0h0a11.34,11.34,0,0,0-2.2-.8,7.55,7.55,0,0,1-2.16-.73,2.76,2.76,0,0,1-.79-.77c-.22-.29-.32-.68,0-.89a3.23,3.23,0,0,1,2.17-.28c.76.08,1.52.21,2.29.34a20.52,20.52,0,0,1,2.26.44,3.89,3.89,0,0,1,1.78,1.36c.5.58,1,1.18,1.53,1.75a31.67,31.67,0,0,1,3,3.52,20.8,20.8,0,0,1,2.47,3.89,12,12,0,0,1,.77,2.18,13,13,0,0,0,.83,2.18,25.85,25.85,0,0,0,2.46,3.93A25.84,25.84,0,0,1,345.66,118.17Z" style="fill:#af6152"></path></g></g></g></g><g id="freepik--character-4--inject-12"><g id="freepik--speech-bubble--inject-12"><path d="M345.74,317.76a1.8,1.8,0,0,1,.74-.24l24.65-2.59v32.58l-12.83,7.41-25.74-27a1.76,1.76,0,0,1,.39-2.74C333.15,325,344.84,318.31,345.74,317.76Z" style="fill:#9333EA"></path><path d="M345.74,317.76a1.8,1.8,0,0,1,.74-.24l24.65-2.59v32.58l-12.83,7.41-25.74-27a1.76,1.76,0,0,1,.39-2.74C333.15,325,344.84,318.31,345.74,317.76Z" style="fill:#fff;opacity:0.30000000000000004"></path><path d="M358.3,322.33l-24.65,2.59a1.76,1.76,0,0,0-1.09,3l25.74,27Z" style="fill:#9333EA"></path><path d="M445.69,426.17,458.17,419a6,6,0,0,0,2.74-4.73V334.64a6,6,0,0,0-2.74-4.73l-81.74-47.2a6.06,6.06,0,0,0-5.47,0l-12.49,7.21a6,6,0,0,0-2.73,4.74v79.58a6.07,6.07,0,0,0,2.73,4.74l81.75,47.19A6.06,6.06,0,0,0,445.69,426.17Z" style="fill:#9333EA"></path><path d="M445.69,426.17,458.17,419a6,6,0,0,0,2.74-4.73V334.64a6,6,0,0,0-2.74-4.73l-81.74-47.2a6.06,6.06,0,0,0-5.47,0l-12.49,7.21a6,6,0,0,0-2.73,4.74v79.58a6.07,6.07,0,0,0,2.73,4.74l81.75,47.19A6.06,6.06,0,0,0,445.69,426.17Z" style="fill:#fff;opacity:0.30000000000000004"></path><path d="M437.82,344.82,460.11,332a5.64,5.64,0,0,1,.8,2.69v79.59a6,6,0,0,1-2.74,4.73l-12.48,7.21a6.06,6.06,0,0,1-5.47,0l-2.4-1.38Z" style="fill:#9333EA"></path><path d="M437.82,344.82,460.11,332a5.64,5.64,0,0,1,.8,2.69v79.59a6,6,0,0,1-2.74,4.73l-12.48,7.21a6.06,6.06,0,0,1-5.47,0l-2.4-1.38Z" style="fill:#fff;opacity:0.1"></path><path d="M443,345v79.58c0,1.75-1.22,2.45-2.73,1.58L358.47,379a6.07,6.07,0,0,1-2.73-4.74V294.66c0-1.74,1.22-2.45,2.73-1.58l81.75,47.2A6,6,0,0,1,443,345Z" style="fill:#9333EA"></path><path d="M333.65,324.92l22.09-2.32V294.66c0-1.74,1.22-2.45,2.73-1.58l81.75,47.2A6,6,0,0,1,443,345v79.58c0,1.75-1.22,2.45-2.73,1.58L358.47,379a6.07,6.07,0,0,1-2.73-4.74v-22l-23.18-24.33A1.76,1.76,0,0,1,333.65,324.92Z" style="fill:#fff"></path><path d="M358.11,295.6,439,342.33a3.68,3.68,0,0,1,1.55,2.68v78.64l-80.92-46.72a3.72,3.72,0,0,1-1.55-2.69v-23l-.66-.69-22.33-23.44L356,325l2.12-.22V295.6m-.86-2.89c-.89,0-1.51.71-1.51,2V322.6l-22.09,2.32a1.76,1.76,0,0,0-1.09,3l23.18,24.33v22a6.07,6.07,0,0,0,2.73,4.74l81.75,47.19a2.42,2.42,0,0,0,1.22.38c.9,0,1.51-.72,1.51-2V345a6,6,0,0,0-2.73-4.73l-81.75-47.2a2.5,2.5,0,0,0-1.22-.37Z" style="fill:#9333EA"></path></g><g id="freepik--character--inject-12"><g id="freepik--bottom--inject-12"><path d="M381.8,366s6.86,11.23,7.88,15.93c1.06,4.9,2.52,6.34,2.56,11.85,0,1.2-.23,3.65-.23,4.63a1.42,1.42,0,0,0,1.56,1.54c2.21.1,5.12-4.51,6.1-9.17a130.6,130.6,0,0,0,1.74-16.14,6.82,6.82,0,0,0-1.24-3.35,10.6,10.6,0,0,0-1.27-1.63c-1.06-2-2.07-6.07-3.13-8.8Z" style="fill:#ffbda7"></path><path d="M406.34,378.46a5.08,5.08,0,0,1,.83,1.53c.22,1-1.48,4.59-2.16,5.91a8,8,0,0,0-.7,5.88,13.8,13.8,0,0,1-1.88,9.33,21.89,21.89,0,0,1-9.63,8.81c-4.95,2.44-7.2.13-7.2.13s-2-2.25-1.22-3.43S406.34,378.46,406.34,378.46Z" style="fill:#263238"></path><path d="M398.9,369.66c.15,0,.42-.12.91.3.19.16,1.52,2.35,2.5,3.45s3.44,3.1,4,5c-.58,4.06-3.77,7.33-3.72,11.06s.68,8-4.2,13.34-10.56,6.77-12.82,5.92-2.43-3.09-.23-7.78c2.33-5,2.82-15,2.82-15a35,35,0,0,0-.13-4.22,27.67,27.67,0,0,0-1.05-4,3.06,3.06,0,0,1,0-1.89,3.12,3.12,0,0,1,1.37-1.32,13.55,13.55,0,0,1,2.71-1.44,4.64,4.64,0,0,1,3-.12c.7.24,1.32.71,2,.88a2.69,2.69,0,0,0,2.67-.94,2.31,2.31,0,0,0,.33-2.65A5.14,5.14,0,0,0,398.9,369.66Z" style="fill:#455a64"></path><path d="M401.11,398.76a9,9,0,0,0-8.83-3.07c-5.94,1-7.5,4.34-8.12,6.27-.73,2.29-1.23,6.32,1.4,7,2.85.76,5.85-.11,10.29-3.31S401.11,398.76,401.11,398.76Z" style="fill:#fafafa"></path><path d="M397.12,381a.61.61,0,0,1-.54.09c-1-.32-6-.55-8.43,2.54-.41-.24-.42-.79-.08-1.62,3-2.64,7.73-2.45,8.93-2.06a.58.58,0,0,1,.36.75A.6.6,0,0,1,397.12,381Z" style="fill:#fafafa"></path><path d="M388.11,387.21a1.88,1.88,0,0,1,.07-1.69,11.28,11.28,0,0,1,8.55-1.74.56.56,0,0,1,.36.75.72.72,0,0,1-.23.31.66.66,0,0,1-.55.08C395.35,384.61,390.58,384.4,388.11,387.21Z" style="fill:#fafafa"></path><path d="M387,395.64a3.41,3.41,0,0,1,.41-2.28c3-2.52,7.62-2.33,8.8-1.95a.57.57,0,0,1,.36.75.67.67,0,0,1-.24.31.64.64,0,0,1-.54.08C394.73,392.21,389.19,392,387,395.64Z" style="fill:#fafafa"></path><path d="M396.59,388.65a.62.62,0,0,1-.54.09c-1-.32-5.91-.54-8.34,2.44a2.1,2.1,0,0,1,.21-1.84,11.29,11.29,0,0,1,8.55-1.75.59.59,0,0,1,.36.76A.66.66,0,0,1,396.59,388.65Z" style="fill:#fafafa"></path><path d="M377.2,382.29s-.4,16.72-2.36,23.48-3,10.05-6.34,15.47c-.73,1.18-2.46,3.43-3.05,4.39a1.63,1.63,0,0,0,.57,2.46c2.11,1.45,9.93.61,13.75-3.35s6.64-11.54,8.8-14.58c.82-1.14,1.57-2.3,2.27-3.51s.28-2.11.17-3.27c-.06-.57-.56-4.9-.56-4.9.66-3.12,1.84-7.44,2.73-10.51Z" style="fill:#ffbda7"></path><path d="M393,410.48a5.64,5.64,0,0,1,0,1.84c-.28,1-3.62,3.6-4.91,4.51a8.54,8.54,0,0,0-3.5,5.2,14.61,14.61,0,0,1-6.28,7.87A23.33,23.33,0,0,1,365,433.51c-5.84-.09-6.84-3.36-6.84-3.36s-.81-3.1.52-3.82S393,410.48,393,410.48Z" style="fill:#263238"></path><path d="M390.45,398.48c.16,0,.26.21.51.85.1.24.29,2.94.68,4.45s1.73,4.58,1.34,6.7c-2.51,3.54-7.09,5.07-8.85,8.61s-3.23,7.82-10.42,10.51-13.2,1.25-14.92-.64-.79-4.09,3.55-7.44c4.61-3.55,9.93-12.76,9.93-12.77a33.05,33.05,0,0,0,1.92-4,27.79,27.79,0,0,0,1-4.29,3.26,3.26,0,0,1,.88-1.8,3.38,3.38,0,0,1,1.93-.58,14.72,14.72,0,0,1,3.25,0,4.86,4.86,0,0,1,2.9,1.34c.55.57.9,1.31,1.5,1.82a2.84,2.84,0,0,0,3,.41c1.41-.65,1.3-1.06,1.59-1.78Z" style="fill:#455a64"></path><path d="M378.23,427a9.53,9.53,0,0,0-6.81-7.16c-6.07-1.95-9.17.45-10.68,2-1.8,1.8-4.22,5.35-2.08,7.28,2.3,2.1,5.55,2.74,11.28,1.87S378.23,427,378.23,427Z" style="fill:#fafafa"></path><path d="M383.07,408.43a.67.67,0,0,1-.55-.19c-.78-.78-5.4-3.43-9.15-1.69-.28-.42,0-.94.7-1.56,4.08-1,8.45,1.44,9.4,2.38a.61.61,0,0,1,0,.88A.71.71,0,0,1,383.07,408.43Z" style="fill:#fafafa"></path><path d="M371.59,409.88a2,2,0,0,1,.89-1.55,12,12,0,0,1,8.89,2.5.6.6,0,0,1,0,.88.58.58,0,0,1-.37.17.63.63,0,0,1-.55-.18C379.66,410.94,375.28,408.44,371.59,409.88Z" style="fill:#fafafa"></path><path d="M366.46,417.27a3.64,3.64,0,0,1,1.49-1.95c4-.93,8.29,1.5,9.22,2.43a.6.6,0,0,1,0,.88.7.7,0,0,1-.37.17.62.62,0,0,1-.55-.18C375.4,417.79,370.31,414.89,366.46,417.27Z" style="fill:#fafafa"></path><path d="M378.88,415.34a.65.65,0,0,1-.56-.18c-.77-.77-5.29-3.36-9-1.74a2.2,2.2,0,0,1,1.09-1.63,11.89,11.89,0,0,1,8.88,2.5.59.59,0,0,1,0,.88A.58.58,0,0,1,378.88,415.34Z" style="fill:#fafafa"></path><path d="M395.48,284c-5.85,5.94-23.16,23.44-31.14,33.66-2.3,2.95-5.22,8.67-2.32,16.76,3.35,9.36,21.55,35.38,21.55,35.38,6.29-.87,13.56-7.85,13.56-7.85l-3.45-15.17,15.63-28.56Z" style="fill:#37474f"></path><path d="M377.54,360.89c7.33-8.46,27.65-54.78,27.65-54.78L404,306c-7.05-3.11-10.79-9.93-10.79-9.93.54,5.9,3.53,8.86,5.71,11-1.85,2.22-10.77,12.71-18.14,20.78-1.85,2-3.68,4.45-3.79,8.39C376.74,345.75,376.94,356.25,377.54,360.89Z" style="fill:#263238"></path><path d="M397.61,284.41h0L438,285.52c2.61,7.57,4.45,18.44,2.79,23.38s-6,11.58-11.69,15.14c-11.31,7.07-24.31,16.06-27,17.9-2,1.39-2.33,5.9-2.4,11.7-.07,6.08.59,10.72-3.25,24.08-3.75,13.07-4.49,15.89-4.49,15.89s-8.71,2.36-15.43-1.86c0,0,1.26-43,1.75-50.73.27-4.35-.06-6.56,4.39-12,3.82-4.67,21.28-23,21.28-23S394.37,296.71,397.61,284.41Z" style="fill:#37474f"></path></g><g id="freepik--top--inject-12"><path d="M358.79,239.34c1,3.07,1.43,7.77,3,14.31l14.23-.51v-1.78c-1.42-3.31-6-14-6.74-15.9-1.12-2.55-2.83-7.06-3.12-7.64-2-4-5.65-6.75-9.3-9.15-.62-.41-1.25-.81-1.88-1.21a9.46,9.46,0,0,1-.9-.61c-.26-.22-.49-.4-.85-.16a1.32,1.32,0,0,0-.47.76,3.65,3.65,0,0,0,.71,2.87,18,18,0,0,0,2.06,2.23c.55.55-.33.67-.75.67-2.08,0-4.87-1.77-6.61-2.83a26.5,26.5,0,0,0-3.39-2.14,4.08,4.08,0,0,0-2.43-.32c-.55.12-1,.41-.8,1.09a2.79,2.79,0,0,0,.79,1,3,3,0,0,1,1.18,2.19,7.21,7.21,0,0,0,0,1.8,20.88,20.88,0,0,0,1.07,2,18.78,18.78,0,0,1,.26,1.94,5.57,5.57,0,0,0,1.41,1.88A18.71,18.71,0,0,0,350,233a20.1,20.1,0,0,0,4.95,2.47A6.57,6.57,0,0,1,358.79,239.34Z" style="fill:#ffbda7"></path><path d="M376.34,252.18a16.11,16.11,0,0,1,.62,10.06c2.76-5.54,1.41-9.35.51-11.23Z" style="fill:#f0997a"></path><path d="M401,231.12c-6,1-7.24,2.87-10.93,6.48s-13.72,13.91-13.72,13.91l-5.16-12.14s0,3.75-4,7.3-6.46,3.51-6.46,3.51,1.55,9.37,4.55,15.65,6.14,7.09,11.53,5.25,18.8-13.71,18.8-13.71Z" style="fill:#9333EA"></path><path d="M401,231.12c-6,1-7.24,2.87-10.93,6.48s-13.72,13.91-13.72,13.91l-5.16-12.14s0,3.75-4,7.3-6.46,3.51-6.46,3.51,1.55,9.37,4.55,15.65,6.14,7.09,11.53,5.25,18.8-13.71,18.8-13.71Z" style="opacity:0.15"></path><path d="M376.34,251.51c1.87,4.64,2,9.64.81,12.53,3.07-3,2.8-9,1-14.38Z" style="opacity:0.35000000000000003"></path><path d="M357.07,225a13.41,13.41,0,0,0,4.32,6.05,5.58,5.58,0,0,1-3.35-1.93A5.23,5.23,0,0,1,357.07,225Z" style="fill:#f0997a"></path><path d="M439.19,289.37c-3.41-9.94-5.59-15.68-5.69-18.83,0,0,2.87-15.86,3.28-19.6,1.07-9.73-.68-14.29-2.63-15.33a69.47,69.47,0,0,0-7.26-2.38c-6.73-1.92-16.38-2.16-22.65-2.06-2.35.12-3.07.2-3.07.2a57.39,57.39,0,0,0-8.45,7.71c-5,5.78-6.55,9.67-5.75,15.62a14.3,14.3,0,0,0,3.3,7c.38,2.87,1,11,1,11-.08,3.2.15,3.13-1.47,10.85C394.91,298.79,428.89,297.84,439.19,289.37Z" style="fill:#fafafa"></path><g id="freepik--head--inject-12"><path d="M424,191.48a8.48,8.48,0,0,1,9.36,2c2.33,2.51,2.87,6.15,3.25,9.56q1,8.85,1.46,17.75c.15,2.65.64,5.28.88,7.94.26,3,.48,6,.64,9a3.3,3.3,0,0,1-.4,2.22,3,3,0,0,1-1.84.93,13.63,13.63,0,0,1-9.74-1.7c-4.55-2.78-7.1-8.16-7.45-13.49a44.8,44.8,0,0,1,.95-10.31,73.19,73.19,0,0,1,1.56-7.46c.44-1.55,1-3.07,1.35-4.64a20.07,20.07,0,0,0-.23-9.77" style="fill:#263238"></path><path d="M427.41,191.42a9.83,9.83,0,0,1,3.27,5.26,2.76,2.76,0,0,1,0,1.66,2.05,2.05,0,0,1-2.15,1.11,4.11,4.11,0,0,1-2.25-1.2,8.53,8.53,0,0,1-2.56-4.83c-.13-.85-.05-2.2.77-2.72S426.68,190.81,427.41,191.42Z" style="fill:#9333EA"></path><path d="M395.59,204.27c-2-4.18-.33-9.86,1.79-12.56,3.08-3.92,8-5.71,15.5-5.47,5.71.18,12.6,2.51,13.85,8.32,5.35,2.51,3.7,9.89,2.39,13-2.76,6.57-6.81,11.75-6.78,15.2Z" style="fill:#263238"></path><path d="M398.66,195.35c-1.28,1-3.39,3.81-3.07,8.92.17,1.54-.32,3.45-.32,6.34,0,10.93,3,13.2,6,14.49,1.76.77,2.74.9,5.55.86V231s-4.21,3.34-1.31,12.07h0c13.26-9,16.9-12.88,16.92-12.9l.09-12.32h0c.07.05,1.75,1.52,4.5,0,3-1.61,4.13-6.64,2.18-9s-4.73-.88-6,1.16-4.29,1.48-3.37-1.63c-1.4-.66-3.14-2.08-1.87-7.78a6.29,6.29,0,0,0-1.63-5.22c-2.31-2-6.81-1.57-9.35,1C403.52,193.64,401.3,193.28,398.66,195.35Z" style="fill:#ffbda7"></path><path d="M409.53,215.63l-5,1.78a2.57,2.57,0,0,0,3.33,1.69A2.82,2.82,0,0,0,409.53,215.63Z" style="fill:#b16668"></path><path d="M406.64,219.22a2.4,2.4,0,0,1,2.38-2.38,2.14,2.14,0,0,1,.58.08,2.78,2.78,0,0,1-1.79,2.18A2.49,2.49,0,0,1,406.64,219.22Z" style="fill:#f28f8f"></path><polygon points="405.5 204.51 404.81 214.26 399.94 211.96 405.5 204.51" style="fill:#f0997a"></polygon><path d="M406.8,226c3.5-.19,11.2-2.48,13-7.13,0,0,.11,3.68-4.19,6.26-3.39,2-8.82,2.87-8.82,2.87Z" style="fill:#f0997a"></path><path d="M398.48,201.12a2.22,2.22,0,0,1,2.68,1.63l-4.31,1.05A2.21,2.21,0,0,1,398.48,201.12Z" style="fill:#263238"></path><path d="M413,201.94a2.21,2.21,0,0,1,1.17,2.91l-4.08-1.74A2.22,2.22,0,0,1,413,201.94Z" style="fill:#263238"></path><path d="M398.13,206.59c-.28.73.23,1,.94,1.24s1.33.43,1.61-.3a1.36,1.36,0,1,0-2.55-.94Z" style="fill:#263238"></path><path d="M400.56,206a3.36,3.36,0,0,0-1-.39,2.67,2.67,0,0,0-1.05-.08,3.27,3.27,0,0,0-1.09.29s-.05.09,0,.08c.29,0,.54-.06,1-.07a5.25,5.25,0,0,1,1.18.17,4.86,4.86,0,0,1,1.32.53,3.1,3.1,0,0,1,.43.25s.08-.08.06-.11A2.35,2.35,0,0,0,400.56,206Z" style="fill:#263238"></path><path d="M412.2,207.29c.24.75-.28,1-1,1.21s-1.36.37-1.6-.38a1.38,1.38,0,0,1,.86-1.76A1.4,1.4,0,0,1,412.2,207.29Z" style="fill:#263238"></path><path d="M409.79,206.62a3.39,3.39,0,0,1,1-.35,2.86,2.86,0,0,1,1.05,0,3.09,3.09,0,0,1,1.07.34s.05.09,0,.08a9.21,9.21,0,0,0-1-.11,5.54,5.54,0,0,0-2.53.59,3.94,3.94,0,0,0-.44.23s-.07-.08,0-.11A2.25,2.25,0,0,1,409.79,206.62Z" style="fill:#263238"></path><path d="M399.61,189.5h16.64c11.24,4.42,7.11,18.88,4.76,20.64-6.69-2.81-6.25-9.48-5.76-13.27-3.38,3.17-9,5.51-11.68,5.78,1.23-1.47,2.26-5.13,2.26-5.13a13.52,13.52,0,0,1-5.26,5.69c-4.11,2.37-6.92.79-6.92.79S392.25,194,399.61,189.5Z" style="fill:#263238"></path></g><path d="M421.37,229.5a35,35,0,0,1-1.51,6.27c-1.35,4.33-1.84,7.8-2.11,17.09s3.12,52.69,2.12,63.2c6.9,0,17.91-4.59,23.05-10.15a118.27,118.27,0,0,0-3.73-21c-2.47-9.38-5-10.13-4.51-15.16s4.19-25.19.11-35.4a41.19,41.19,0,0,1-6-1.2C422.22,231.57,421.37,229.5,421.37,229.5Z" style="fill:#9333EA"></path><path d="M406.67,229l-.25.93c0,2.66-5.48,6.9-9.32,13.18s-4.45,12.39-4.19,20.41c.15,4.23-.37,14.58-1,24l-5.31,5.18c.55-3.86,1.16-7.8,1.59-9.62.69-2.89.64-7.62.64-13.55a53.89,53.89,0,0,0-.47-7.7s-3.8-4.72-1.58-13.47S401,231.13,401,231.13a23.69,23.69,0,0,1,2.34-.58A13,13,0,0,0,406.67,229Z" style="fill:#9333EA"></path><path d="M422.38,225.78a13.29,13.29,0,0,0,4.25,6.78s-1.81,8.44-1.49,12.58,1.15,8.16,0,8.13a31,31,0,0,1-4.59-1.08s2.76,4,2.49,5.3S418.51,273,418.51,273s-1.79-16.45-1.52-21.28S418.15,238,419.86,233C421.06,229.38,422.38,225.78,422.38,225.78Z" style="fill:#9333EA"></path><path d="M422.38,225.78a13.29,13.29,0,0,0,4.25,6.78s-1.81,8.44-1.49,12.58,1.15,8.16,0,8.13a31,31,0,0,1-4.59-1.08s2.76,4,2.49,5.3S418.51,273,418.51,273s-1.79-16.45-1.52-21.28S418.15,238,419.86,233C421.06,229.38,422.38,225.78,422.38,225.78Z" style="opacity:0.15"></path><path d="M392.78,270.68c-.24-4.63-2.66-16.24-3-18.56s3-4.43,3-4.43-2,.51-2.63,0,3.34-6.3,6.75-10.12,9.91-9.61,9.91-9.61V231a42.84,42.84,0,0,0-5,6.54C398.85,242.49,393.29,247.83,392.78,270.68Z" style="fill:#9333EA"></path><path d="M392.78,270.68c-.24-4.63-2.66-16.24-3-18.56s3-4.43,3-4.43-2,.51-2.63,0,3.34-6.3,6.75-10.12,9.91-9.61,9.91-9.61V231a42.84,42.84,0,0,0-5,6.54C398.85,242.49,393.29,247.83,392.78,270.68Z" style="opacity:0.15"></path><g id="freepik--arm--inject-12"><path d="M414.21,253.42c-2.45-2.12-3.69-3-4.88-3.4s-5.28-2.51-6.87-3c-1-.34-1.55,1.27-.32,2.49a35.73,35.73,0,0,0,4.58,3,20.08,20.08,0,0,1,3.16,3.63Z" style="fill:#f0997a"></path><path d="M447,243.89c-2.27-6.39-5.86-8.67-12-9.35-3.87,8.85-.83,22.86-.83,22.86l3.59,10.17s-12.46-4.11-14.12-5.36a82.4,82.4,0,0,1-7.28-7.1c-2-2.22-3.08-2-4.18-1.94-3.61.27-4.41.51-5.2.93a1.61,1.61,0,0,0-.8,1.34c-1,.05-2.38-.09-2.68,1.46a4.85,4.85,0,0,0-.15,1.24,1,1,0,0,0-.64.31c-.86.85.26,4.12,1.06,4.95a3.08,3.08,0,0,0,2.56.65c1-.06.6-1.07.6-1.07l1.33.18c2.75,2.28,2.59,6.38,6.36,7.57a26,26,0,0,1,4.62,1.26c8,3.4,18.64,13.57,27.77,14.21,7.21.51,8.13-2.86,8.17-7.28C455.14,274.34,449,249.58,447,243.89Z" style="fill:#ffbda7"></path><path d="M434.79,234.36c3.49.6,6.67.84,9.3,3.72s3.32,5.49,5.18,12.44,3.63,14.06,5.08,21,1.59,11.25-.62,13.5-6.42,1.87-8.57,1.48a33.3,33.3,0,0,1-6.12-2.33s2.06-2.84,1.19-8.75-4-8.34-4-8.34l1.22.35s-2.65-6.74-4.49-11.4S431.76,238.41,434.79,234.36Z" style="fill:#9333EA"></path><path d="M434.79,234.36c3.49.6,6.67.84,9.3,3.72s3.32,5.49,5.18,12.44,3.63,14.06,5.08,21,1.59,11.25-.62,13.5-6.42,1.87-8.57,1.48a33.3,33.3,0,0,1-6.12-2.33s2.06-2.84,1.19-8.75-4-8.34-4-8.34l1.22.35s-2.65-6.74-4.49-11.4S431.76,238.41,434.79,234.36Z" style="opacity:0.15"></path><path d="M436.73,265.52l.76,1.93c4.26,1,8.58,2.18,9.73,3.76C446,268.56,442.72,266.72,436.73,265.52Z" style="opacity:0.35000000000000003"></path><path d="M406.1,255.44l4.3-.54-4.17,0A1.56,1.56,0,0,0,406.1,255.44Z" style="fill:#f0997a"></path><path d="M403.27,258.14l4.93-.27-4.89-.3A3.48,3.48,0,0,0,403.27,258.14Z" style="fill:#f0997a"></path><path d="M403.76,260.34a1.58,1.58,0,0,0,.61.62,3.39,3.39,0,0,0,.81.34l-.06-.05c.11.27.23.53.35.79l.12-.13a1,1,0,0,0-.79.14,1.28,1.28,0,0,0-.48.6,1.49,1.49,0,0,1,.54-.49,1,1,0,0,1,.67-.07l.18.05-.07-.18c-.11-.26-.23-.52-.35-.78l0,0h0a4.8,4.8,0,0,1-.8-.29A1.84,1.84,0,0,1,403.76,260.34Z" style="fill:#f0997a"></path><path d="M405,261.06a14.78,14.78,0,0,0,1.76.26,1.9,1.9,0,0,0,.54,1,9.89,9.89,0,0,0,.88.86l-1.33-.18a2.19,2.19,0,0,0-1.48-.94Z" style="fill:#f0997a"></path></g></g></g></g><g id="freepik--character-2--inject-12"><g id="freepik--character--inject-12"><g id="freepik--bottom--inject-12"><path d="M222.22,280.09c-1,16-2.43,35.53-2.49,36.35-.28,4.34.1,6.06,1.8,7.89,3.57,3.83,8.75,7.48,13.22,10.81-.65,1.72-6.79,2.47-9.46,1.17a68.21,68.21,0,0,1-9.92-6.33c-3.68-2.72-8.38-4.91-8.44-9.05a5.56,5.56,0,0,0-.12-.74c-.07-2.41-5.7-29.54-6.17-37.81,0-.72-.07-1.48-.09-2.29Z" style="fill:#b16668"></path><path d="M167.33,295.51c.08-4.39.24-9.1.54-13.28,0-.74.1-1.45.16-2.14h21.44c-1.88,7.38-3.91,15-5.29,20.29-1.85,7-5.59,17.12-6.23,24.15-.2,1.67-2.09,18.13-2.88,21.9s-9,3.87-9.53-2.61c-.35-4.32,1.16-18.25,1.31-20.32C167.65,312.53,166.42,312.64,167.33,295.51Z" style="fill:#b16668"></path><path d="M241.59,340.33a3.54,3.54,0,0,1-.62,3.58c-1.42,1.25-5.58,3.31-11.12,2.66s-8.55-2.34-10.78-4.17-5.37-4.4-7.87-4.93a15.2,15.2,0,0,1-5.62-2.22c-.75-.71-.68-3.91-.68-3.91Z" style="fill:#263238"></path><path d="M206.69,319s-.41,0-.55.76c-.16.89-.32,3.45-.67,4.9a26.06,26.06,0,0,0-.46,7.76c.33,1.63,4.13,2.73,6.56,3.63a30.46,30.46,0,0,1,7.89,4.87,23,23,0,0,0,11.72,4.22c5.51,0,9-1.51,10.13-3.5,1.34-2.46,1-4.69-5.33-7.55-1.21-.54-5.44-3-6.88-3.87a32.08,32.08,0,0,1-4.34-3.16,23.17,23.17,0,0,1-1.95-1.89,8.32,8.32,0,0,1-1.62-2,4.76,4.76,0,0,1-.19-.53,8.62,8.62,0,0,1-.43-1.48c-.11-.52-.18-1.29-.69-1.6a4.21,4.21,0,0,0-2.26-.24,26.47,26.47,0,0,0-3.41.71,3.2,3.2,0,0,0-2.34,1.67,4.63,4.63,0,0,0-.49,2.3c0,.37,0,.74,0,1.11,0,.15.07.44-.15.37s-.46-.61-.54-.79c-.18-.41-.29-.85-.49-1.26a6.62,6.62,0,0,0-.8-1.33,6,6,0,0,0-1-1,9.17,9.17,0,0,1-1.09-.69A2.57,2.57,0,0,1,206.69,319Z" style="fill:#37474f"></path><path d="M237,334.58c-8,.64-11.18,6.4-11.49,9.45a18.85,18.85,0,0,0,5.67,1.13c5.51,0,9.28-1.51,10.36-3.5C242.8,339.33,242.67,336.67,237,334.58Z" style="fill:#fafafa"></path><path d="M224.29,335.61a.39.39,0,0,1-.3-.63c1.09-1.37,5-4,7.93-3.74a.38.38,0,0,1,.35.43.38.38,0,0,1-.42.35c-2.71-.26-6.39,2.36-7.26,3.44A.36.36,0,0,1,224.29,335.61Z" style="fill:#f0f0f0"></path><path d="M220.84,333.65a.4.4,0,0,1-.31-.64c1.1-1.37,5-4,7.94-3.73a.38.38,0,0,1,.35.42.38.38,0,0,1-.42.35c-2.71-.26-6.39,2.36-7.26,3.45A.46.46,0,0,1,220.84,333.65Z" style="fill:#f0f0f0"></path><path d="M217.64,331.4a.38.38,0,0,1-.25-.09.39.39,0,0,1-.06-.55c1.09-1.37,5-4,7.94-3.73a.39.39,0,1,1-.08.77c-2.7-.25-6.39,2.36-7.25,3.45A.46.46,0,0,1,217.64,331.4Z" style="fill:#f0f0f0"></path><path d="M214.5,329.15a.36.36,0,0,1-.24-.09.37.37,0,0,1-.07-.54c1.5-1.95,5.7-4.07,8.6-3.78a.39.39,0,1,1-.08.77c-2.6-.25-6.57,1.76-7.91,3.48A.41.41,0,0,1,214.5,329.15Z" style="fill:#f0f0f0"></path><path d="M177.65,349.37c-.22,3.76-.8,6.25-2.13,8.46s-3.85,2.89-6.4,2.25-5.81-2.37-6.54-5.62-1.16-5.46-.58-8.94Z" style="fill:#263238"></path><path d="M166.94,322.16c-1.05.08-1.36,5.13-2,10.18-.65,5.42-2.27,7.66-2.85,12.09-.66,5.08.18,7.34,2,10.41s8.07,6.08,11.17,1.68c2.53-3.58,2.63-7.55,2.4-12.61a110.94,110.94,0,0,1,.34-12.84c.2-3.8,1-7.63.13-8.05-.07.56-.14,1.27-.21,1.81a9.17,9.17,0,0,1-.34,2c-.11.28-.34.58-.44.12a3.36,3.36,0,0,1,0-1c.16-1.4-.55-1.51-.93-1.62a49.17,49.17,0,0,0-4.87-.69c-.8-.05-3.57-.17-3.93.28a3.26,3.26,0,0,0-.35,1.47c-.09.76-.26,1.32-.29,1.08-.05-.54.06-2,.07-2.31s.07-.78.07-1.11S166.92,322.48,166.94,322.16Z" style="fill:#37474f"></path><path d="M161.84,347.37a12.61,12.61,0,0,0,2,7.71c1.77,3.07,8.57,6.09,11.67,1.7,1.55-2.19,2-4.77,2.17-7.41C175.79,346,164.77,344.49,161.84,347.37Z" style="fill:#fafafa"></path><path d="M175.36,343.85a.31.31,0,0,1-.13,0,17.85,17.85,0,0,0-9.62-.94.39.39,0,1,1-.18-.76,18.44,18.44,0,0,1,10.14,1,.4.4,0,0,1,.18.52A.37.37,0,0,1,175.36,343.85Z" style="fill:#f0f0f0"></path><path d="M165.84,339.1a.37.37,0,0,1-.33-.26.39.39,0,0,1,.24-.49c4.71-1.6,9.93.8,10.13.9a.38.38,0,0,1,.16.52.4.4,0,0,1-.52.17c-.05,0-5.14-2.34-9.52-.85A.43.43,0,0,1,165.84,339.1Z" style="fill:#f0f0f0"></path><path d="M166,335.54a.39.39,0,0,1-.33-.26.4.4,0,0,1,.23-.5c5.18-1.85,10.14.77,10.32.88a.39.39,0,0,1,.13.53.38.38,0,0,1-.53.13s-4.84-2.53-9.65-.8A.52.52,0,0,1,166,335.54Z" style="fill:#f0f0f0"></path><path d="M166.26,332a.39.39,0,0,1-.32-.25.38.38,0,0,1,.23-.5c4.85-1.82,10.18.86,10.38,1a.39.39,0,0,1-.39.67s-5.22-2.61-9.72-.92A.55.55,0,0,1,166.26,332Z" style="fill:#ebebeb"></path><path d="M177.71,181.46c-4.72,8.6-7.26,15.64-7.74,41.23s-1.24,33.27-1.34,36.36-2.39,8.56-2.72,23.84c-.27,12.95,0,33.88,0,33.88s1.07,2.82,6.82,3.79,7.7-.67,7.7-.67,8-32.56,9.93-41.74c2.22-10.61,8.42-35.85,8.42-35.85l1.82,20.86a83.65,83.65,0,0,0-.34,19.66c1.54,13.34,5.79,32.56,5.79,32.56a15.51,15.51,0,0,0,7.25,1.41c4.59-.06,6.49-2.23,6.49-2.23s4.76-42.45,4.76-57.56,4-51-3.52-75.68Z" style="fill:#37474f"></path><path d="M204.78,207.06l-6,35.24,1.82,20.86.71-24.29,5-26.92c3.65-.88,11.94-5.24,14.21-11.48C214.88,206.34,204.78,207.06,204.78,207.06Zm-17.73-13.9c.64-2.44,1.32-4.87,2.08-7.31a36,36,0,0,0-3.28,6.93,68,68,0,0,0-2.18,7.35,74,74,0,0,0-1.38,7.54,48.72,48.72,0,0,0-.51,7.64c.61-2.49,1.18-4.95,1.74-7.42s1.12-4.93,1.72-7.39S186.42,195.6,187.05,193.16Zm-3.66-1.83c.82-1.49,1.65-3,2.4-4.56a26.45,26.45,0,0,0-3.45,3.88,36.36,36.36,0,0,0-2.81,4.36,32.64,32.64,0,0,0-2.13,4.75,20,20,0,0,0-1.17,5.07l2.32-4.57c.79-1.5,1.57-3,2.39-4.48S182.58,192.82,183.39,191.33Zm-2.7,90.37q-1.94,10.71-3.57,21.45,2.48-10.59,4.68-21.23c1.5-7.09,2.9-14.17,4.29-21.31S188.28,246.24,189,239s1.23-14.44,1.67-21.68c-1,7.18-1.9,14.37-2.8,21.56s-1.87,14.35-3.19,21.44S182,274.57,180.69,281.7Zm39.08-35.85c.16,3.47.37,7,.31,10.38s-.28,6.93-.46,10.4l-.52,10.42q-.54,10.43-.83,20.88,1.23-10.38,2.08-20.8c.57-6.94,1.11-13.86,1.34-20.87,0-7-.62-14-1.24-20.92S219,221.49,217.9,214.6l1.3,20.84C219.39,238.91,219.62,242.38,219.77,245.85Z" style="fill:#263238"></path></g><g id="freepik--top--inject-12"><g id="freepik--arm--inject-12"><path d="M233.83,202.64a1.39,1.39,0,0,0-1.48.72c-.21-.14-.34-.42-.59-.49s-.58.19-.77.45a5.83,5.83,0,0,0,.2,6.84.94.94,0,0,0,.33.3,1,1,0,0,0,.52.06,11.93,11.93,0,0,0,2.7-.52,3,3,0,0,0,2.11-1.62,3.42,3.42,0,0,0-.15-2,5,5,0,0,0-1.18-2.31C235.1,203.65,234.42,202.77,233.83,202.64Z" style="fill:#9a4a4d"></path><path d="M216.26,136.07c5.67,1.24,9.2,1.93,14.36,9.9,6,9.33,14.08,20.3,15.33,22.94,2.28,4.84,2.35,6.64-4.37,15.41-4.19,5.46-8.71,12-10.19,14-.69.92.12,2.69.56,3.75.7,1.66,0,3.51.6,6.71a14.82,14.82,0,0,1,3.57-1.31s-2.51-2.46-1.55-4.23a.55.55,0,0,1,.78-.2c.6.42,1.53,1.39,2.62,2.36,1.93,1.7,1.45,2.1.71,5.18-.3,1.24-1.23,1.62-4.87,2.51s-4.76.44-9.43-3.16-4.13-13.33-2-17.11,8.33-17.59,8.33-17.59l-13.37-17.4Z" style="fill:#b16668"></path><path d="M215.8,134.28c6-.93,9.61.09,12.31,4.54,2.84,4.69,18,28.86,18.29,30.8-1.86,3.14-11,6.37-15.74,5.59l-.18.38-13.64-17.23Z" style="fill:#455a64"></path><path d="M229.39,174.09l.61.84a25.74,25.74,0,0,0,9.85-2.23,8.71,8.71,0,0,0,4.65-6.83l-.56-1,.29-.11a1.18,1.18,0,0,1,.72,0,2.65,2.65,0,0,1,1.39,1.33,6.49,6.49,0,0,1,.53,1.65,7.19,7.19,0,0,0,.45,1.5c.13.28.34.53.49.79a6.05,6.05,0,0,1,.79,2.52,3.25,3.25,0,0,1-.82,2.77c-1.87,2.28-4.94,3.24-7.88,3.43-3.19.19-7.23.29-10-1.36a1.2,1.2,0,0,1-.66-.74c-.05-.33.17-.66.14-1a2.3,2.3,0,0,0-.25-.66A1.22,1.22,0,0,1,229.39,174.09Z" style="fill:#263238"></path></g><path id="freepik--Chest--inject-12" d="M175.33,190.79c-4.32-2.32.68-5,2.37-18.52.43-3.48-.29-12.22-.29-12.22s8.06-8.81,6.9-25.81l15.36-.89,9.85.59,6.17,2.2c2,2,2.7,3.54,5.55,8.26,4.11,6.83,6.15,14.82,2.37,20.7-.13,1-.29,17,.8,20.9,1,3.66,1.25,4.08-.78,5.59C217.29,195.72,183,194.23,175.33,190.79Z" style="fill:#fafafa"></path><path d="M209.52,133.94l6.21,1.41c8.75,7.47,11.15,12.41,10.53,30.68a216.29,216.29,0,0,0,1.22,24.52c.86,8.25,2.4,19.56,2.4,19.56s-4.52,4.17-9.66,5.21c-.9-8.83-2.18-43.38-1.4-51S220.64,144.5,209.52,133.94Z" style="fill:#9333EA"></path><path d="M209.52,133.94l6.21,1.41c8.75,7.47,11.15,12.41,10.53,30.68a216.29,216.29,0,0,0,1.22,24.52c.86,8.25,2.4,19.56,2.4,19.56s-4.52,4.17-9.66,5.21c-.9-8.83-2.18-43.38-1.4-51S220.64,144.5,209.52,133.94Z" style="opacity:0.30000000000000004"></path><path d="M219.5,167.92c.65-2,1.35-4,2.05-6s1.39-4,2-6a21.81,21.81,0,0,0,.8-3c.23-.95-.4-1.8-1-2.61a29,29,0,0,0-4.53-4.25l-.15-.12,0-.18a10,10,0,0,0,.24-3.33,8.79,8.79,0,0,0-.93-3.22,10,10,0,0,0-2.18-2.6,15.81,15.81,0,0,0-2.83-1.95,14.78,14.78,0,0,1,3,1.78,9.43,9.43,0,0,1,2.37,2.58,9,9,0,0,1,1.09,3.35,10.07,10.07,0,0,1-.19,3.54l-.11-.3a27,27,0,0,1,4.69,4.31,7.15,7.15,0,0,1,.89,1.39,2.37,2.37,0,0,1,.15.4,1.23,1.23,0,0,1,.1.43,2.49,2.49,0,0,1,0,.87,23.69,23.69,0,0,1-.86,3.08c-.66,2-1.45,4-2.22,5.92S220.3,166,219.5,167.92Z" style="opacity:0.2"></path><path d="M192.79,133.75s2.39,3.59,5.3,11.84,5.74,15.77,5.13,23.17-5.8,45.84-5.8,45.84-12.27,2-28.47-7.61c3.15-18.36,6.13-21.74,6.92-29,.39-3.62-2.11-15.64-3.62-25.12-2-12.83,6-17.83,6-17.83Z" style="fill:#9333EA"></path><path d="M192.79,133.75s2.39,3.59,5.3,11.84,5.74,15.77,5.13,23.17-5.8,45.84-5.8,45.84-12.27,2-28.47-7.61c3.15-18.36,6.13-21.74,6.92-29,.39-3.62-2.11-15.64-3.62-25.12-2-12.83,6-17.83,6-17.83Z" style="opacity:0.30000000000000004"></path><path d="M201.65,170.86a16.78,16.78,0,0,0-2.54-5.33,58.74,58.74,0,0,0-3.49-4.8c-.61-.79-1.23-1.56-1.85-2.33l-1-1.16c-.15-.21-.31-.38-.47-.61a1.57,1.57,0,0,1-.12-.19,2.47,2.47,0,0,1-.1-.29,2.14,2.14,0,0,1,0-.5,9,9,0,0,1,1.25-2.88c.54-.86,1.11-1.68,1.72-2.49v.5l-2.8-3.29-1.4-1.66-.34-.42-.17-.2a1.5,1.5,0,0,1-.24-.34,1.61,1.61,0,0,1,0-.68c0-.19.06-.38.1-.56a33.68,33.68,0,0,1,1.35-4.16c.53-1.36,1.07-2.7,1.66-4-.44,1.38-.9,2.76-1.32,4.14a40.07,40.07,0,0,0-1.12,4.16,2.76,2.76,0,0,0-.06.91c0-.08,0,0,.1.1l.18.2.37.41,1.45,1.63,2.88,3.28.21.23-.2.26c-.57.79-1.13,1.61-1.63,2.45a8.66,8.66,0,0,0-1.18,2.54,1.77,1.77,0,0,0,0,.24.13.13,0,0,1,0,.06s.06.09.08.13.29.38.44.57l.92,1.17c.61.79,1.23,1.58,1.82,2.38a57.61,57.61,0,0,1,3.32,5,25,25,0,0,1,1.34,2.69A10.4,10.4,0,0,1,201.65,170.86Z" style="opacity:0.2"></path><g id="freepik--head--inject-12"><g id="freepik--head--inject-12"><g id="freepik--head--inject-12"><path d="M190.39,121.34a5.09,5.09,0,0,1-4.66-1.49c-2.55-2.51-2.92-5.19-1.9-7,.84-1.52,3.06-2.59,4.71-1.68s1.86,1.84,2.57,3,1.68-.07.86-4.88a17.14,17.14,0,0,1,5.52-10c3.14-3.24,6.12-3,8.14-3.13a6.21,6.21,0,0,1,5.71-.16c2.28,1.07,4.24,4.37,5.5,12.93,1.28,8.72-.35,15.66-2.27,17.25a10.08,10.08,0,0,1-6.66,2.35l.76,4s7.74,9.84-3.6,8.57a15.62,15.62,0,0,1-11-6.89l-1.85-14.31S192.07,120.92,190.39,121.34Z" style="fill:#b16668"></path><path d="M202.55,110.07a1.48,1.48,0,0,1-1.77,1.11,1.49,1.49,0,0,1-1-1.82,1.45,1.45,0,1,1,2.81.71Z" style="fill:#263238"></path><path d="M213.85,105.59l-3.17-1.4a1.66,1.66,0,0,1,2.23-.93A1.84,1.84,0,0,1,213.85,105.59Z" style="fill:#263238"></path><path d="M210.73,109.51a1.45,1.45,0,1,0,.74-2A1.47,1.47,0,0,0,210.73,109.51Z" style="fill:#263238"></path><path d="M201.69,104.08l-3,2.14a1.78,1.78,0,0,1,.38-2.56A1.94,1.94,0,0,1,201.69,104.08Z" style="fill:#263238"></path><path d="M202.94,118.24l4.9,1.09a2.51,2.51,0,0,1-3.23,1.84A2.36,2.36,0,0,1,202.94,118.24Z" style="fill:#9a4a4d"></path><path d="M206,121.19a2.64,2.64,0,0,0-2.85-2.09l-.24.05a2.23,2.23,0,0,0,1.71,2A2.81,2.81,0,0,0,206,121.19Z" style="fill:#f28f8f"></path><polygon points="206.04 108 207.5 116.56 212.08 114.5 206.04 108" style="fill:#9a4a4d"></polygon></g><path d="M192,109.25c1.5-5.73,5.93-11.65,13.49-12.73a8.85,8.85,0,0,1,7.76,2.22,9,9,0,0,1,2.44,4.32,57.24,57.24,0,0,1,1.59,9.8,22.48,22.48,0,0,0-.88-12.35c-2.24-6.35-6.74-7.29-12.47-7.08S191.12,100.06,192,109.25Z" style="fill:#263238"></path></g><path d="M192.88,113.7s-1.15-9.48,3.05-14.42c5.2-6.13,12.56-7.11,17.79-2.18,1.9,1.8,4.06,8.19,3.53,15.76a43.37,43.37,0,0,0,.48-9.76c-1-11.14-10.21-15.93-19.22-15.3S183,93.12,180.67,101.24c-1.43,5.07-.93,11.93-.41,18.81.74,9.77-2,15-2,15a21.45,21.45,0,0,1,2.36.5,11.55,11.55,0,0,0,6.2-.08c6.21-1.9,7.55-8,6.74-15.41Z" style="fill:#9333EA"></path><path d="M192.88,113.7s-1.15-9.48,3.05-14.42c5.2-6.13,12.56-7.11,17.79-2.18,1.9,1.8,4.06,8.19,3.53,15.76a43.37,43.37,0,0,0,.48-9.76c-1-11.14-10.21-15.93-19.22-15.3S183,93.12,180.67,101.24c-1.43,5.07-.93,11.93-.41,18.81.74,9.77-2,15-2,15a21.45,21.45,0,0,1,2.36.5,11.55,11.55,0,0,0,6.2-.08c6.21-1.9,7.55-8,6.74-15.41Z" style="fill:#fff;opacity:0.4"></path><path d="M193.67,121.14a9.62,9.62,0,0,0,4.78,5.66,16.8,16.8,0,0,0,9.24,1.62c3.47-.16,5.68-1.36,7-2.81s2.66-6.88,2.59-10.44c1.53,8.65,2.92,9.38,1.61,13.16a15.61,15.61,0,0,0-1.16,5.61s2.43,9.05-7.92,11.15-17-2.22-23-9.67C192.58,133.25,194.26,128,193.67,121.14Z" style="fill:#9333EA"></path><path d="M193.67,121.14a9.62,9.62,0,0,0,4.78,5.66,16.8,16.8,0,0,0,9.24,1.62c3.47-.16,5.68-1.36,7-2.81s2.66-6.88,2.59-10.44c1.53,8.65,2.92,9.38,1.61,13.16a15.61,15.61,0,0,0-1.16,5.61s2.43,9.05-7.92,11.15-17-2.22-23-9.67C192.58,133.25,194.26,128,193.67,121.14Z" style="fill:#fff;opacity:0.6000000000000001"></path><path d="M186.83,135.42c.48.59,1,1.15,1.44,1.7,7.43-2.55,6.65-12.22,5.67-15.31a5.87,5.87,0,0,1-.27-.67C194.26,128,192.58,133.25,186.83,135.42Z" style="fill:#9333EA;opacity:0.6000000000000001"></path><path d="M193.74,125.08a14,14,0,0,0,12.3,7.38c-3.63,1.81-9.82-.83-12.8-4.19Z" style="fill:#9333EA;opacity:0.6000000000000001"></path><path d="M217.68,130.67c-3.05,7.26-13.35,9.19-22.67,5.9C200,141.39,215.12,142.9,217.68,130.67Z" style="fill:#9333EA;opacity:0.6000000000000001"></path></g><path d="M178.27,135c-10.92,1.07-12.54,4.93-15.85,13.7-1.7,4.51-5.85,16.3-7.08,19.84-3.81,11-3.6,16.93-.26,19.11,3.83,2.51,21.7-24.29,21.7-24.29S186.71,141.68,178.27,135Z" style="fill:#455a64"></path><path d="M161.58,182.51c.77-.95,1.64-2.07,2.55-3.27,4.44-6.38,12.65-15.88,12.65-15.88s1.22-2.69,2.4-6.27c-3.14,2-16.16,9.86-19.71,13.21-3.86,3.63-4.06,6.63-4.89,10.12Z" style="fill:#263238"></path><path d="M167.13,166.16c-4.48-.15-13.1,4.9-14.79,8s-.5,5.41-.91,7.3-.37,5.3,1.66,7,7.73,3.19,12.67-1.57Z" style="fill:#263238"></path><path d="M176,160.93c3.81-2.37,5.14-3.06,7.78-6.2a43.69,43.69,0,0,1,7-6.43c1.92-1.59,3-4.11,4.07-5.23.71-.77,1.8.42,1.68,2.3a9,9,0,0,1-2.15,4.44c-1.24,1.59-.53,1.35,1.13,1a58.93,58.93,0,0,1,9.21-.81c1.71.1,3.4.57,3.23,1.66,0,0,2.68-.48,3,.93s-1.7,2.62-1.7,2.62.21,1.18-1.83,2.08c-1.14.5-4.67,1.34-5.92,1.78-1.42.5-2.92,1.2-2.92,1.2a62,62,0,0,1,6.24-.55c1.73.08,1.6,1.3-.31,2.28s-7.64,1.47-9.28,2.3a22.4,22.4,0,0,1-6.38,1.94A6.83,6.83,0,0,0,184.4,169c-1.82,2.25-10.1,10.38-12.17,13a18,18,0,0,1-8.26,5.64c-4.3,1.57-8.13.74-9,0s-1.58-3.47-.11-7.89c1.93-5.82,3.05-7,6.82-9.87C165.83,166.63,173.94,162.2,176,160.93Z" style="fill:#b16668"></path><path d="M194.35,149.81c-.76,1-.79,1.25-.33,1.25h0c-.65.09-1.93.44-2.12-.06s1-1.36,2.22-2.36a8.8,8.8,0,0,0,2.38-3.27A9,9,0,0,1,194.35,149.81Z" style="fill:#9a4a4d"></path><path d="M207.92,151.63a55,55,0,0,0-7.9.63,24.21,24.21,0,0,0-3.19.73,29.59,29.59,0,0,0-3.09,1c1.07-.12,2.14-.28,3.2-.48s2.11-.42,3.14-.55,3.6-.52,4.66-.72S206.85,151.86,207.92,151.63Z" style="fill:#9a4a4d"></path><path d="M209.17,155.18a.73.73,0,0,0-.12-.42.82.82,0,0,0-.36-.28,2.81,2.81,0,0,0-.9-.17,9.57,9.57,0,0,0-1.78.12c-1.17.15-3.8.54-5,.77-.58.13-1.16.25-1.74.42s-1.15.39-1.7.59c-1.11.4-2.22.83-3.33,1.3,1.17-.19,2.33-.44,3.48-.74.58-.14,1.14-.35,1.69-.46s1.14-.26,1.71-.37c1.15-.24,3.78-.66,4.93-.93.57-.12,1.14-.26,1.7-.33S209,154.57,209.17,155.18Z" style="fill:#9a4a4d"></path><path d="M195.06,160.73s1.89-.58,3-.95,4.62-1.06,4.62-1.06h0c-.29.08-1,.24-1.22.32-1.42.5-2.92,1.2-2.92,1.2A32.67,32.67,0,0,0,195.06,160.73Z" style="fill:#9a4a4d"></path></g></g></g><g id="freepik--character-1--inject-12"><g id="freepik--character--inject-12"><g id="freepik--bottom--inject-12"><g id="freepik--bottom--inject-12"><polygon points="94.39 393.69 97.41 392.25 94.44 391.41 94.39 393.69" style="fill:#263238"></polygon><path d="M124.21,399.37s-35.42-16.08-35.88-13.72a3.55,3.55,0,0,0,0,1.42l-.09-.13.62,4.42a10.65,10.65,0,0,0,5.52,2.33l0-2.28a18.93,18.93,0,0,1,3.12,1.66c2.27,1.51,3.72,4.12,6.11,7.17,1.75,2.21,4.88,3.26,9.53,3.95,5,.74,9.42-.18,10.67-1.5C124.87,401.63,124.38,399.68,124.21,399.37Z" style="fill:#263238"></path><path d="M123.23,398.55c-.34-.36-1.6-1.75-3.3-3.26a66.92,66.92,0,0,0-5.1-4.36,20.05,20.05,0,0,1-2.53-2.09c-.61-.66-1.2-1.35-1.75-2.06a38.49,38.49,0,0,1-4.24-7.22,17,17,0,0,1-1.47-3.79,23.58,23.58,0,0,1-.39-4.19c0-6.34.14-7.34.21-12.17l-15,.39c.48,2.68,1.2,6.33,1.44,9.37.36,4.63.48,5.65-1.37,10.25a13.26,13.26,0,0,0-1.44,4.11c-.13,2.36,1.74,4.41,3.83,5.58,1.73,1,3.73,1.4,5.41,2.43a17.37,17.37,0,0,1,4.4,4.32c1.18,1.52,2.13,3.32,3.8,4.39a15.77,15.77,0,0,0,5.77,2,31.71,31.71,0,0,0,7.77.44C123,402.45,125.7,401.14,123.23,398.55Z" style="fill:#ffa8a7"></path><path d="M121.21,396c-1.52-1.28-3.68-3.12-6.28-5.19a6.84,6.84,0,0,0-5.52.46c-5.29,2.71-6.22,6.59-6.22,6.59a7.56,7.56,0,0,0,4.28,3.75c6.08,2.68,17,1.92,17.13-.86C124.68,398.93,123.06,397.51,121.21,396ZM90.05,378.42s-.36.91-1.3,2.69a5,5,0,0,0,0,5.35,8.16,8.16,0,0,0,5.32,3.63C95.81,384.83,92.16,379.57,90.05,378.42Z" style="fill:#37474f"></path><path d="M61.69,385.58c1,1.59-.29,7.58-.06,11.84.2,3.87,1.26,10.63,0,14.45-1.43,4.54-4.35,9.8-9.77,5.55-3.36-2.63-5.29-6-5.75-11.61-.32-3.88,1.25-9.24,2.61-14,1.57-5.55,2.18-8.52,2.18-8.52Z" style="fill:#263238"></path><path d="M50.56,357c-.39,9,.68,15.38.74,21.16a39.67,39.67,0,0,1-.84,7.82c-.77,3.69-2.08,8.82-2.63,11.22-.77,3.34-1.35,5.45-.18,9.2a4,4,0,0,0,.39.84c1.64,3.09,5.81,5.43,7.15,5.05a2.33,2.33,0,0,0,2.35.81A2.46,2.46,0,0,0,58,413a2.65,2.65,0,0,0,.44-.17A4.55,4.55,0,0,0,60.66,410c.08-.26.15-.53.21-.82a28.48,28.48,0,0,0,.18-9.48c-.11-2.11,0-4.78.2-8.17s1-14,2.21-19.12c.89-3.56,2-8,3.17-12.76Z" style="fill:#ffa8a7"></path><path d="M47,401.56c3.29-1.43,12.83-1.63,14.36,2.94,0,4.3.06,7.21-2.7,10.95-3.67,5-8.46-.3-10.3-3.64S46.57,403.87,47,401.56Z" style="fill:#37474f"></path><path d="M61.11,244.59C56.46,252.41,55.17,258.28,54,279c-1.37,23.32-1.17,32.2-1.29,35s-2,8-3.69,21.84.08,47.46.08,47.46,1.16,2.26,6.81,2.77a15.16,15.16,0,0,0,8.27-1.24s9.78-41,11.31-49.41c2-11.33,7-38.82,7-38.82l3.23,22.3s-1.65,7.64-.16,19.82S90,375.4,90,375.4a30.92,30.92,0,0,0,7.89,1.91,20.17,20.17,0,0,0,8.76-.95S111,326.8,111.11,313s-2.44-48-6.9-68.44Z" style="fill:#455a64"></path><path d="M87.34,269.54l-4.86,25.92,3.23,21.83-1.27-22.11,4.33-21.26c3.55-.76,9.51-5.27,11.77-10.83C95,268.3,87.34,269.54,87.34,269.54ZM70.9,254.26c.64-2.17,1.32-4.34,2.08-6.52a31.15,31.15,0,0,0-3.24,6.18,55.2,55.2,0,0,0-2.17,6.55,62.15,62.15,0,0,0-1.4,6.72,39.89,39.89,0,0,0-.55,6.82c.61-2.21,1.18-4.41,1.75-6.61s1.12-4.4,1.72-6.59S70.27,256.44,70.9,254.26Zm-3.54-1.66c.81-1.32,1.62-2.65,2.37-4A25,25,0,0,0,66.34,252a33.81,33.81,0,0,0-2.77,3.88,29.62,29.62,0,0,0-2.1,4.22,17.1,17.1,0,0,0-1.18,4.53l2.3-4.07c.77-1.34,1.54-2.67,2.35-4S66.55,253.93,67.36,252.6Zm-3.64,86.63q-2.14,10.53-4,21.1,2.74-10.41,5.2-20.88c1.65-7,3.21-13.94,4.76-21s2.46-14.14,3.26-21.24,1.44-14.22,2-21.35C73.78,283,72.76,290,71.73,297.11s-2.11,14.12-3.58,21.1S65.13,332.21,63.72,339.23ZM104.17,304c.13,3.1.31,6.21.23,9.27s-.32,6.19-.52,9.28l-.58,9.31q-.6,9.31-1,18.64,1.27-9.27,2.17-18.56c.61-6.2,1.18-12.38,1.45-18.64,0-6.29-.5-12.47-1-18.68s-1.34-12.39-2.34-18.55l1.12,18.63C103.85,297.8,104.05,300.9,104.17,304Z" style="fill:#37474f"></path></g></g><g id="freepik--top--inject-12"><path d="M156.32,181.21a4.36,4.36,0,0,0-2.61.34,29.45,29.45,0,0,0-3.65,2.3c-1.87,1.15-4.87,3-7.1,3.05-.45,0-1.4-.13-.81-.73a18.6,18.6,0,0,0,2.22-2.39,3.92,3.92,0,0,0,.75-3.08,1.31,1.31,0,0,0-.5-.82c-.39-.26-.63-.07-.91.16a9.2,9.2,0,0,1-1,.66l-2,1.31c-3.92,2.58-7.82,5.56-10,9.84-.32.62-2.16,5.47-3.36,8.21-1,2.5-7.7,18.17-7.7,18.17s-11.32-11.73-15-15.4c-4-4-7.88-6-14.18-5.7l5.3,21s15.44,13.92,17.77,15.42c3.44,2.22,10,6.32,13.92,2,4.79-5.26,6.12-13.81,7.65-20.05,1.72-7,2.17-10.39,3.26-12.54s3-2.41,4.39-2.91a21.23,21.23,0,0,0,5.32-2.67,19.92,19.92,0,0,0,4-3.3,6.22,6.22,0,0,0,1.52-2,17.14,17.14,0,0,1,.28-2.09,21.56,21.56,0,0,0,1.14-2.18,7.86,7.86,0,0,0,0-1.94,3.28,3.28,0,0,1,1.27-2.36,3.06,3.06,0,0,0,.85-1.11C157.42,181.66,156.92,181.34,156.32,181.21Z" style="fill:#ffa8a7"></path><path d="M124.18,207.39l2.23-5.55a12.94,12.94,0,0,0,4.54,6.75c3.51,2.51,5.55,2.44,5.55,2.44l-1.72,7.09a16.44,16.44,0,0,1-6.51-2.75C125.58,213.27,124.18,207.39,124.18,207.39Z" style="fill:#fafafa"></path><path d="M119.66,218.23a16.07,16.07,0,0,0-.62,10.05c-2.75-5.54-1.41-9.34-.51-11.23Z" style="fill:#f0997a"></path><path d="M95,197.16c6,1,7.25,2.87,10.93,6.49s13.72,13.91,13.72,13.91l5.17-12.14s0,3.75,4,7.29,6.89,3.48,6.89,3.48-2,9.4-5,15.68-6.14,7.1-11.52,5.26-18.81-13.71-18.81-13.71Z" style="fill:#9333EA"></path><path d="M95,197.16c6,1,7.25,2.87,10.93,6.49s13.72,13.91,13.72,13.91l5.17-12.14s0,3.75,4,7.29,6.89,3.48,6.89,3.48-2,9.4-5,15.68-6.14,7.1-11.52,5.26-18.81-13.71-18.81-13.71Z" style="opacity:0.15"></path><path d="M119.66,217.56c-1.86,4.64-2,9.64-.81,12.53-3.07-3-2.8-9-1-14.38Z" style="opacity:0.15"></path><path d="M140.52,189a14.38,14.38,0,0,1-4.64,6.51,6,6,0,0,0,3.6-2.08A5.6,5.6,0,0,0,140.52,189Z" style="fill:#f28f8f"></path><path id="freepik--chest--inject-12" d="M57.43,254.92c-3.17-3.18.42-5,1.39-18.7.25-3.52-.93-12.25-.93-12.25S65.64,215,63.59,198l15.21-2,8.69-.17L95,198c2.14,1.92,6.06,5,9.16,9.54,4.49,6.63,5.16,13.83.33,19.1-.08,1,.6,17,1.9,20.92,1.21,3.63,1.91,5.9.44,7.24C93.71,266.42,63.83,260.56,57.43,254.92Z" style="fill:#fafafa"></path><path d="M87.49,195.84,95,197.16c6,4.72,13,13.16,13.31,19.54a33.44,33.44,0,0,1-1.12,10.69s-.68,13.22.66,20.09q1.5,7.76,3,15.52c.41,2.16-.21,3.39-1.94,4.84a8.16,8.16,0,0,1-5.1,1.91,1,1,0,0,1-.58-.13.93.93,0,0,1-.25-.72c.13-17.51,0-32.08-1.07-48.12C101.26,211.1,95.09,202.32,87.49,195.84Z" style="fill:#9333EA"></path><path d="M71.57,196.76l0,.76a45.61,45.61,0,0,1,4.1,14,85.72,85.72,0,0,1,1.07,17.53c-.61,14.81-2.9,29.61-1.79,44.39a1.19,1.19,0,0,1-.24,1,1.06,1.06,0,0,1-.55.21c-6.07,1.06-13.29-.49-18.94-2.7-1.76-.69-3.41-1.75-3.49-3.75-.11-2.53.59-5.53,1-8.06.66-4.79,2.21-9.66,2.54-14.46.63-9,2.62-17.87,2.84-27q.24-10.07.45-20.12Z" style="fill:#9333EA"></path><g id="freepik--arm--inject-12"><path d="M89.66,219.72c2.85-2.12,4.29-2.95,5.62-3.32s6-2.32,7.78-2.76c1.14-.29,1.6,1.52.15,2.76a39.61,39.61,0,0,1-5.27,2.9c-1.27.7-3.76,3.72-3.76,3.72Z" style="fill:#f28f8f"></path><path d="M49.57,205.85c2.83-6,5.24-6.61,12.09-7.4,6.44,6.28,1.21,20.32,1.21,20.32l-3.11,14.76s16.72-2.42,18.65-3.66,7.1-6.8,8.84-8.46c2.36-2.27,3.54-2,4.74-1.79,3.93.59,4.79.92,5.62,1.45a1.77,1.77,0,0,1,.77,1.53c1,.13,2.61.1,2.81,1.82a4.83,4.83,0,0,1,.06,1.37,1.14,1.14,0,0,1,.68.39c.87,1-.62,4.49-1.57,5.34a3.42,3.42,0,0,1-2.86.51c-1-.15-.56-1.22-.56-1.22l-1.48.08c-3.2,2.28-3.36,6.78-7.59,7.77a28.76,28.76,0,0,0-5.17,1c-9.1,3.06-24,12.33-32.14,13-7.92.68-7.69-3.54-7.82-8.39C42.63,240,46.75,211.86,49.57,205.85Z" style="fill:#ffa8a7"></path><path d="M70.27,231.78l6-1.26s-1.23,1.26-.87,5.34,2.7,5.73,2.7,5.73l-8.72,4.24Z" style="fill:#fafafa"></path><path d="M60.1,231.87l-.34,1.66c-3.6.93-7.84,5.69-8.7,7.66A11.75,11.75,0,0,1,60.1,231.87Z" style="fill:#f0997a"></path><path d="M61.92,198.14s-1.15.11-3.38.46-5.46.75-7.88,4.56-2.6,5.45-4,12-3.84,21.69-4.15,27.33.31,8.28,1.72,9.43,4.72,2.07,9.6.54,19.34-7.31,19.34-7.31-1.87.11-2.46-5.4.65-8.24.65-8.24L60.1,233.23,63.62,218S68.4,203,61.92,198.14Z" style="fill:#9333EA"></path><path d="M61.92,198.14s-1.15.11-3.38.46-5.46.75-7.88,4.56-2.6,5.45-4,12-3.84,21.69-4.15,27.33.31,8.28,1.72,9.43,4.72,2.07,9.6.54,19.34-7.31,19.34-7.31-1.87.11-2.46-5.4.65-8.24.65-8.24L60.1,233.23,63.62,218S68.4,203,61.92,198.14Z" style="opacity:0.15"></path><path d="M60.1,233.23c-3.93.8-8,2.75-9.67,6.56,1.23-6.28,6.9-8.2,10.13-8.56Z" style="opacity:0.15"></path><path d="M98.38,222.6l-4.67-.94,4.57.3A1.82,1.82,0,0,1,98.38,222.6Z" style="fill:#f28f8f"></path><path d="M101.25,225.79l-5.38-.7,5.39.08A3.25,3.25,0,0,1,101.25,225.79Z" style="fill:#f28f8f"></path><path d="M99.76,228.66a5.9,5.9,0,0,1-.72.2,18.43,18.43,0,0,1-1.87.13,2.1,2.1,0,0,1-.67,1,11.32,11.32,0,0,1-1,.87l1.48-.08a2.33,2.33,0,0,1,1.52-.88,1.15,1.15,0,0,1,.72.13,1.73,1.73,0,0,1,.55.59,1.43,1.43,0,0,0-.47-.7,1.1,1.1,0,0,0-.56-.22l.31-.66a3.38,3.38,0,0,0,.81-.28,1.63,1.63,0,0,0,.72-.63A2.09,2.09,0,0,1,99.76,228.66Z" style="fill:#f28f8f"></path></g><path d="M94,174.92a17.28,17.28,0,0,0,1.9-.59c1.87-.83,3.72-1.81,4.31-3.92a8.77,8.77,0,0,0,.07-3.68,6.41,6.41,0,0,1,1.81,3.66,12.19,12.19,0,0,0,1.68-6.33,14.81,14.81,0,0,0-1.69-6.89c-2.08-3.62-6.29-5.66-10.45-6a12.64,12.64,0,0,1-3.73-.52c-1.18-.44-2.4-.85-3.61-1.18a15.63,15.63,0,0,0-8.2-.09,12.59,12.59,0,0,0-7.4,5.73c-.14.21-1,2.11-1.1,2.11a8.62,8.62,0,0,0-7.28,5,7.2,7.2,0,0,0-.73,4.5c.3,1.93.7,3.87.16,5.8-.35,1.27-.88,2.49-1.24,3.76a11.39,11.39,0,0,0,.18,7.14,7.88,7.88,0,0,0,5.13,4.78A3.12,3.12,0,0,1,63,185.5c.49,1.64,2.18,2.6,3.81,3.13s3.38.82,4.74,1.85c.56.41.78.89,1.44.93a7.06,7.06,0,0,0,2.07-.55,15.1,15.1,0,0,0,3.84-1.79,24,24,0,0,0,3.13-2.66c1.35-1.3,2.71-2.6,3.93-4s2.42-3.11,3.78-4.54a13.22,13.22,0,0,1,3-2.47A5,5,0,0,1,94,174.92Z" style="fill:#e0e0e0"></path><path d="M94,174.92a17.28,17.28,0,0,0,1.9-.59c1.87-.83,3.72-1.81,4.31-3.92a8.77,8.77,0,0,0,.07-3.68,6.41,6.41,0,0,1,1.81,3.66,12.19,12.19,0,0,0,1.68-6.33,14.81,14.81,0,0,0-1.69-6.89c-2.08-3.62-6.29-5.66-10.45-6a12.64,12.64,0,0,1-3.73-.52c-1.18-.44-2.4-.85-3.61-1.18a15.63,15.63,0,0,0-8.2-.09,12.59,12.59,0,0,0-7.4,5.73c-.14.21-1,2.11-1.1,2.11a8.62,8.62,0,0,0-7.28,5,7.2,7.2,0,0,0-.73,4.5c.3,1.93.7,3.87.16,5.8-.35,1.27-.88,2.49-1.24,3.76a11.39,11.39,0,0,0,.18,7.14,7.88,7.88,0,0,0,5.13,4.78A3.12,3.12,0,0,1,63,185.5c.49,1.64,2.18,2.6,3.81,3.13s3.38.82,4.74,1.85c.56.41.78.89,1.44.93a7.06,7.06,0,0,0,2.07-.55,15.1,15.1,0,0,0,3.84-1.79,24,24,0,0,0,3.13-2.66c1.35-1.3,2.71-2.6,3.93-4s2.42-3.11,3.78-4.54a13.22,13.22,0,0,1,3-2.47A5,5,0,0,1,94,174.92Z" style="opacity:0.05"></path><g id="freepik--head--inject-12"><g id="freepik--head--inject-12"><g id="freepik--head--inject-12"><path d="M69.2,185.19a5.25,5.25,0,0,1-4.8-1.67c-2.59-2.67-2.91-5.47-1.8-7.37.91-1.56,3.25-2.61,4.93-1.62s1.89,1.95,2.6,3.19,2.39.2,1.66-4.82c3.39-1.72,2.66-7.46,4.45-9.86,2.79-3.77,7.61-3,9.19-2.14a6.24,6.24,0,0,1,6.51-.62c2.18,1.09,3.87,2.81,4.89,10.18.08.57-.31,1.6-.09,2.21,2.75,7.82,0,15.47-2.08,17.47-1.41,1.37-4.08,2.35-7.29,2.26l.12,3.44s9.55,9.38-2.28,8.86a18.58,18.58,0,0,1-13.61-7.18l-.49-13.83S71,184.8,69.2,185.19Z" style="fill:#ffa8a7"></path><path d="M89.26,183.17a2.64,2.64,0,0,1-5.2-.88Z" style="fill:#b16668"></path><path d="M84.07,183.15a2.6,2.6,0,0,0,3.09,2.16A2.68,2.68,0,0,0,84.07,183.15Z" style="fill:#f28f8f"></path><path d="M83.89,174.12a1.51,1.51,0,1,1-2.9-.8,1.53,1.53,0,0,1,1.86-1.11A1.54,1.54,0,0,1,83.89,174.12Z" style="fill:#263238"></path><path d="M94.93,168l-3.22-1.61a1.73,1.73,0,0,1,2.36-.85A1.89,1.89,0,0,1,94.93,168Z" style="fill:#263238"></path><path d="M92.35,173.55a1.5,1.5,0,1,0,2.79-1.12,1.5,1.5,0,1,0-2.79,1.12Z" style="fill:#263238"></path><path d="M80.85,167.15l-3.33,1.94a1.84,1.84,0,0,1,.62-2.61A2,2,0,0,1,80.85,167.15Z" style="fill:#263238"></path><path d="M98.88,168.66l-.68,0a20.57,20.57,0,0,0-6.67.71c-2.08.79-2.76,1.55-4,1.65s-2.13-.56-4.47-1a23.31,23.31,0,0,0-7.17.33l-.71.13a1.07,1.07,0,0,0-.69,1.21,2.74,2.74,0,0,0,.82,1.29,1.46,1.46,0,0,1,.28.52,22.93,22.93,0,0,0,1.24,3.63,4.55,4.55,0,0,0,1,1.26,3.52,3.52,0,0,0,.5.36l.29.16a4.59,4.59,0,0,0,.84.31l.14,0,.22.05.23,0q.33,0,.72.06h.3l.38,0c2.94-.21,4-1.66,4.63-3.11s.22-3.42,1.57-3.52H88c1,.15,1.08,2,1.84,3.24a5.39,5.39,0,0,0,1.1,1.35l.25.21.13.09.14.09.12.08.14.07.1.06.08,0a4.19,4.19,0,0,0,1.21.37l.11,0a6.25,6.25,0,0,0,1.45,0,4,4,0,0,0,3.9-2.87A23.16,23.16,0,0,0,99,171.7a1.14,1.14,0,0,1,.2-.5,2.46,2.46,0,0,0,.49-1.41A1.16,1.16,0,0,0,98.88,168.66ZM85.28,175a3.92,3.92,0,0,1-.83,2h0a4.1,4.1,0,0,1-3.09,1.36,3.73,3.73,0,0,1-3.22-1.2L78,177a1.13,1.13,0,0,1-.1-.13l-.09-.13a1,1,0,0,1-.08-.11l-.05-.09a.35.35,0,0,1,0-.08l-.08-.14h0l-.19-.4h0a2.44,2.44,0,0,1-.1-.24c-.06-.14-.1-.27-.14-.39l0-.07,0-.07c-.32-1-.78-2.87-.32-3.34s1.76-1,4-1H81a8.78,8.78,0,0,1,1,.09l.39.06c.36.07.7.15,1,.24l.31.1.33.12.07,0,.13.05a2.29,2.29,0,0,1,.7.47C85.44,172.56,85.43,173.84,85.28,175ZM98,173.58a4.09,4.09,0,0,1-1.76,3.29,3.88,3.88,0,0,1-1.59.47,3.73,3.73,0,0,1-3.42-1.23h0l-.07-.09a.86.86,0,0,1-.07-.1l0,0-.1-.15-.1-.17a.41.41,0,0,1,0-.09l0,0,0-.07,0-.05a4.21,4.21,0,0,1-.28-.72,4.6,4.6,0,0,1-.22-3c.36-.63,1.91-1.41,3.44-1.72a7.73,7.73,0,0,1,1-.14h.25l.35,0h.56a4,4,0,0,1,.52,0l.12,0h0l.08,0,.13,0,.15,0,.24.07.05,0a2.13,2.13,0,0,1,.57.29C98.2,170.64,98.12,172.58,98,173.58Z" style="fill:#37474f"></path><path d="M93.17,179l-5.28,2.4-1.34-6.77c.16-1,.3-1.81,1.12-1.91Z" style="fill:#f28f8f"></path><path d="M97,173.37l-.11-.38-.12,0-.21,0a2.46,2.46,0,0,0-.47,0c-.09,0-.11.12-.08.19a.19.19,0,0,0,.18.16l.43.06.19,0h.09Z" style="fill:#f28f8f"></path><path d="M95.92,172.31l.35-.05.25-.06.15,0c0-.18,0-.38.06-.57h-.08l-.12,0-.21.06c-.19.06-.39.11-.57.18S95.72,172.32,95.92,172.31Z" style="fill:#f28f8f"></path><path d="M78.77,173.15l.19,0h.1l.21,0,.44.14a.29.29,0,0,0,.27,0,.19.19,0,0,0,0-.16v-.07a.28.28,0,0,0-.08-.11,1.08,1.08,0,0,0-.32-.24l0,0,0,0-.09,0a.83.83,0,0,0-.21-.06,2,2,0,0,0-.35-.06.75.75,0,0,0-.3,0,.2.2,0,0,0-.13.12.28.28,0,0,0,0,.18A.46.46,0,0,0,78.77,173.15Z" style="fill:#f28f8f"></path><path d="M80.08,174.36a.18.18,0,0,0,0-.22.32.32,0,0,0-.18-.18l-.14-.05h-.53l-.12,0H79.1a.68.68,0,0,0-.21.1l0,.06,0,.06a.31.31,0,0,0,0,.19.45.45,0,0,0,.11.13l.08,0a.2.2,0,0,0,.13,0h.23l.07,0,.14,0,.26-.06H80a.27.27,0,0,0,.12-.06h0Z" style="fill:#f28f8f"></path><path d="M83.45,181.49l0,0-.1.05a1.07,1.07,0,0,0-.16.14l-.23.25a3.62,3.62,0,0,0-.38.58,2.26,2.26,0,0,0-.25.7c0,.12,0,.23-.06.35s0,.11,0,.17a.71.71,0,0,0,.06.24c0,.12.24.25.33.12a.47.47,0,0,0,.09-.17c0-.05,0-.1.05-.15a2.64,2.64,0,0,1,.1-.3c.1-.18.17-.37.26-.56a2.88,2.88,0,0,1,.3-.5,4.58,4.58,0,0,0,.38-.56C83.88,181.7,83.64,181.41,83.45,181.49Z" style="fill:#f28f8f"></path><path d="M75.13,170.6l-7.6,3.93a8.18,8.18,0,0,1,1.22.92l6.63-3.25Z" style="fill:#37474f"></path></g></g><path d="M87.37,192.4c-4.62,0-10.86-1.49-12.61-4.42,1,3.19,4.32,4.75,6.94,5.4a26.32,26.32,0,0,0,5.69.81Z" style="fill:#f28f8f"></path></g></g></g></g></svg>
